<svg id="carrers-page-illustration" xmlns="http://www.w3.org/2000/svg" width="576" height="438.494" viewBox="0 0 576 438.494">
  <path id="Path_170661" data-name="Path 170661" d="M522.827,177.691s-43.478,31.372-47.929,34.1-33.208,24.893-28.073,68.541c12.325,55.924,65.047,69.223,127.013,73.656S689.21,352.965,725.5,308.294c31.154-31.713,32.866-90.024,22.938-117.645-18.627-48.964-59.569-68.541-85.588-72.633s-56.146-4.433-94.489,23.529S522.827,177.691,522.827,177.691Z" transform="translate(-282.004 -53.106)" fill="#efefef"/>
  <path id="Path_170747" data-name="Path 170747" d="M427.485,186.69c3.166-1.783,92.635-92.33,245.178-69.146s208.867,129.1,208.867,129.1,43.5,69.039,31.508,165.269-94.593,103.5-94.593,103.5-59.45-7.065-105.829-24.3-101.226-.435-118.366,13.591-88.7,47.794-135.4,39.055c-36.208-12.428-88.794-24.906-110.6-157.016-3.808-129.086,76.073-198.27,79.239-200.053" transform="translate(-342.157 -113.749)" fill="#eee" opacity="0.69"/>
  <path id="Path_170748" data-name="Path 170748" d="M1519.6,570.749s-13.55,8.311-16.343,25.292c13.432-9.3,16.343-25.292,16.343-25.292" transform="translate(-967.011 -315.232)" fill="#d9c6f3"/>
  <path id="Path_170749" data-name="Path 170749" d="M1509.525,622.666a33.353,33.353,0,0,0-19.409,17.891c13.514-4.837,19.409-17.891,19.409-17.891" transform="translate(-959.898 -343.36)" fill="#d9c6f3"/>
  <path id="Path_170750" data-name="Path 170750" d="M1501.19,663.927a33.353,33.353,0,0,0-19.409,17.891c13.514-4.837,19.409-17.891,19.409-17.891" transform="translate(-955.388 -365.722)" fill="#d9c6f3"/>
  <path id="Path_170751" data-name="Path 170751" d="M1495.141,708.812a29.594,29.594,0,0,0-17.221,15.874c11.991-4.292,17.221-15.874,17.221-15.874" transform="translate(-953.299 -390.045)" fill="#d9c6f3"/>
  <path id="Path_170752" data-name="Path 170752" d="M1484.093,605.7s6.885,12.139,1.908,25.723c-6.38-12.8-1.908-25.723-1.908-25.723" transform="translate(-955.815 -334.172)" fill="#d9c6f3"/>
  <path id="Path_170753" data-name="Path 170753" d="M1463.17,652.208s11.026,9.881,7.742,23.724a27.589,27.589,0,0,1-7.742-23.724" transform="translate(-945.136 -359.379)" fill="#d9c6f3"/>
  <path id="Path_170754" data-name="Path 170754" d="M1445.872,703.2s13.538,5.424,14.856,19.623a26.643,26.643,0,0,1-14.856-19.623" transform="translate(-935.96 -387.01)" fill="#d9c6f3"/>
  <path id="Path_170755" data-name="Path 170755" d="M1494.295,596.4c.256-.476-23.918,42.249-18.062,76.594,2.641,3.32,2.735-.913,2.735-.913s-8.128-20.976,15.326-75.681" transform="translate(-951.891 -329.208)" fill="#d9c6f3"/>
  <path id="Path_170756" data-name="Path 170756" d="M1569.87,616.749a52.183,52.183,0,0,1-8.471,34.631c-2.107-18.043,8.471-34.631,8.471-34.631" transform="translate(-998.316 -340.176)" fill="#bca6d5"/>
  <path id="Path_170757" data-name="Path 170757" d="M1540.342,668.472s6.305,13.177-.47,30.11c-5.689-14.052.47-30.11.47-30.11" transform="translate(-985.514 -368.203)" fill="#bca6d5"/>
  <path id="Path_170758" data-name="Path 170758" d="M1513.626,711.867s6.306,13.177-.47,30.11c-5.689-14.052.47-30.11.47-30.11" transform="translate(-971.059 -391.723)" fill="#bca6d5"/>
  <path id="Path_170759" data-name="Path 170759" d="M1484.638,758.757s5.6,11.691-.417,26.716c-5.048-12.468.417-26.716.417-26.716" transform="translate(-955.551 -417.131)" fill="#bca6d5"/>
  <path id="Path_170760" data-name="Path 170760" d="M1564.344,686.339a46,46,0,0,0-21.654,21.972c14.6-7.055,21.654-21.972,21.654-21.972" transform="translate(-988.344 -377.874)" fill="#bca6d5"/>
  <path id="Path_170761" data-name="Path 170761" d="M1540.344,744.5a32.623,32.623,0,0,0-24.18,15.987c15.8-2.092,24.18-15.987,24.18-15.987" transform="translate(-973.992 -409.386)" fill="#bca6d5"/>
  <path id="Path_170762" data-name="Path 170762" d="M1510.446,802.309s-13.809-4.76-25.948,7.18c14.336,3.819,25.948-7.18,25.948-7.18" transform="translate(-956.858 -440.329)" fill="#bca6d5"/>
  <path id="Path_170763" data-name="Path 170763" d="M1516.454,655.893c.2-.615-16.53,55.432-47.77,82.4-4.479,1.123-1.2-2.785-1.2-2.785s22.282-13.218,48.974-79.619" transform="translate(-947.026 -361.613)" fill="#bca6d5"/>
  <path id="Path_170764" data-name="Path 170764" d="M361.171,693.121c-1.745-1.022-5.856-6.031-5.482-10.465.126-1.486.585-.9,1.5-3.986.537-1.824,2-6.778,0-8.472a2.053,2.053,0,0,0-1.5-.5c-1.066.16-1.757,1.528-1.993,2.492-.27,1.1.131,1.375,0,3.488-.056.907-.126,1.905-.5,1.993-.3.072-.7-.494-1-1a13.709,13.709,0,0,1-1.994-6.478,39.454,39.454,0,0,1,1.5-6.478,20.147,20.147,0,0,0,1-6.478,4.468,4.468,0,0,0-1-2.99,2.669,2.669,0,0,0-1.993-1c-1.362.16-2.073,2.256-2.492,3.488-1.006,2.964.809,5.12-.5,6.478-.138.143-.559.58-1,.5-1.225-.229-1.423-4.295-1.495-5.98-.181-4.251.4-6.037,1-11.959a37.9,37.9,0,0,0,0-9.468,9.673,9.673,0,0,0-2.492-5.482,2.6,2.6,0,0,0-1.993-1,2.938,2.938,0,0,0-1.993,1.495c-1.423,2.106-1.19,4.767-1,6.478a93.988,93.988,0,0,0,1.994,10.465c1.738,7.94,1.686,7.94,1.993,8.471.5,1.5,1.112,3.059.5,3.987-.206.311-.133.069-.5,0-.351-.067-.622-.427-1-1.5-.746-2.126-.373-2.7-1-3.488a2.682,2.682,0,0,0-2.492-1,2.88,2.88,0,0,0-1.994,1.993c-.616,1.994,1.146,4.135,3.488,6.977a24.249,24.249,0,0,0,3.986,3.986c1.922,1.5,2.3,1.29,3.488,2.492,1.036,1.048,1.7,2.374,2.99,4.983,1.161,2.352,1.831,3.728,1.495,3.987-.411.316-2.152-1.178-2.99-1.994-1.476-1.437-1.626-2.21-2.99-2.99-.491-.281-1.758-1.005-2.492-.5-.659.454-.534,1.653-.5,1.993a6.359,6.359,0,0,0,2.492,3.986c3.127,2.669,4.354,2,6.976,3.987a18.567,18.567,0,0,1,5.98,7.973c.433,1.2.891,2.95,2.492,3.986.654.424,1.925,1,2.492.5.448-.4.328-1.37,0-1.993a2.544,2.544,0,0,0-1-1" transform="translate(-335.134 -347.316)" fill="#c1adde"/>
  <path id="Path_170765" data-name="Path 170765" d="M426.439,751.238c-2.945-5.594-4.419-8.412-4.485-9.468-.216-3.443,1.965-3.687,2.99-9.468.346-1.954,1.262-7.118-1-8.471a3.874,3.874,0,0,0-3.986.5c-2.615,1.968-1.062,6.237-3.488,7.475a2.784,2.784,0,0,1-2.492,0c-.578-.316-1.234-1.034-1.495-2.99-.54-4.042,1.285-8.276,2.492-10.963,3.525-7.85,3.973-7.384,4.485-9.966.321-1.62,1.293-7.589-1.993-10.963a4.056,4.056,0,0,0-2.99-1.5c-2.054.181-3.28,3.007-3.488,3.488-1.121,2.586-.091,3.834-1.495,6.478-.413.777-1.036,1.917-1.993,1.993-1.163.094-2.135-1.433-2.492-1.993-2.212-3.473-1.665-7.938-1.5-9.468a81.8,81.8,0,0,0-.5-19.434,38.835,38.835,0,0,0-3.986-11.96c-1.793-3.682-3.615-6.192-6.478-7.475a4.774,4.774,0,0,0-3.488-.5c-1.655.569-2.72,2.543-3.488,6.478-.57,2.918-1,5.98-.5,14.95,1,6.976,2.492,9.468,3.488,11.462s3.487,7.183,4.734,10.215c.7,1.71.446,3.918-.249,4.734a2.013,2.013,0,0,1-1.993.5c-.648-.185-1.083-.7-1.993-2.492-1.455-2.866-1.247-3.334-1.993-3.986a4.219,4.219,0,0,0-4.485-.5c-2.388,1.311-2.077,5.376-1.993,6.478.466,6.089,5.557,10.238,6.478,10.963a74.187,74.187,0,0,0,8.969,5.482c1.414.774,3.66,1.962,3.986,3.986.106.659.055,1.686-.5,1.994-.591.328-1.506-.3-2.492-1-2.036-1.435-2.026-2.21-3.488-2.99-.492-.263-2.211-1.179-3.488-.5-1.382.736-1.472,2.927-1.495,3.488-.138,3.367,3.235,5.457,8.472,9.966a129.39,129.39,0,0,1,9.468,8.97c4.286,4.566,5.165,6.533,9.966,10.963,3.84,3.543,6.119,4.907,8.472,4.485a2.718,2.718,0,0,0,2.492-1.993c.649-1.57.766-3.627-1-6.976" transform="translate(-359.698 -361.885)" fill="#e0cdfa"/>
  <path id="Path_170766" data-name="Path 170766" d="M440.725,529.7s-8.635,16.676-1.1,34.972c7.913-17.565,1.1-34.972,1.1-34.972" transform="translate(-390 -292.994)" fill="#d9c6f3"/>
  <path id="Path_170767" data-name="Path 170767" d="M460.1,584.319s-11.142,12.349-8.719,29.713c10.717-13.273,8.719-29.713,8.719-29.713" transform="translate(-397.844 -322.592)" fill="#d9c6f3"/>
  <path id="Path_170768" data-name="Path 170768" d="M476.834,629.757s-11.142,12.349-8.718,29.713c10.717-13.273,8.718-29.713,8.718-29.713" transform="translate(-406.898 -347.219)" fill="#d9c6f3"/>
  <path id="Path_170769" data-name="Path 170769" d="M496.686,678.9s-9.886,10.957-7.736,26.363c9.51-11.777,7.736-26.363,7.736-26.363" transform="translate(-418.192 -373.852)" fill="#d9c6f3"/>
  <path id="Path_170770" data-name="Path 170770" d="M413.389,597.287s14.366,7.449,17.617,23.823c-14.262-8.417-17.617-23.823-17.617-23.823" transform="translate(-377.475 -329.613)" fill="#d9c6f3"/>
  <path id="Path_170771" data-name="Path 170771" d="M419.181,656.7s17.178,2.627,22.3,18.18a30.846,30.846,0,0,1-22.3-18.18" transform="translate(-380.608 -361.805)" fill="#d9c6f3"/>
  <path id="Path_170772" data-name="Path 170772" d="M432.382,717.1s17-3.3,26.993,9.68a30.591,30.591,0,0,1-26.993-9.68" transform="translate(-387.751 -394.323)" fill="#d9c6f3"/>
  <path id="Path_170773" data-name="Path 170773" d="M438.849,568.729c-.031-.626,1.576,56.274,28.445,85.987,4.7,1.557,2.21-2.623,2.21-2.623s-21.013-15.262-30.654-83.364" transform="translate(-391.25 -314.223)" fill="#d9c6f3"/>
  <path id="Path_170774" data-name="Path 170774" d="M914.5,482.31H650.991A10.211,10.211,0,0,1,640.78,472.1V271.148a10.211,10.211,0,0,1,10.211-10.211H914.5a10.211,10.211,0,0,1,10.211,10.211V472.1A10.211,10.211,0,0,1,914.5,482.31" transform="translate(-500.434 -147.525)" fill="#c9c9c9"/>
  <path id="Path_170775" data-name="Path 170775" d="M922.871,482.254H666.781a3.676,3.676,0,0,1-3.676-3.676V278.853a3.676,3.676,0,0,1,3.676-3.676h256.09a3.676,3.676,0,0,1,3.676,3.676V478.578a3.676,3.676,0,0,1-3.676,3.676" transform="translate(-512.513 -155.226)" fill="#fff"/>
  <path id="Path_170776" data-name="Path 170776" d="M640.78,271.148a10.211,10.211,0,0,1,10.211-10.211H914.5a10.211,10.211,0,0,1,10.211,10.211" transform="translate(-500.434 -147.311)" fill="#a061f6"/>
  <path id="Path_170777" data-name="Path 170777" d="M678.965,271.23a1.838,1.838,0,1,1-1.838-1.838,1.838,1.838,0,0,1,1.838,1.838" transform="translate(-519.137 -151.89)" fill="#fff"/>
  <path id="Path_170778" data-name="Path 170778" d="M678.965,271.23a1.838,1.838,0,1,1-1.838-1.838A1.838,1.838,0,0,1,678.965,271.23Z" transform="translate(-519.137 -151.89)" fill="none" stroke="#a061f6" stroke-miterlimit="10" stroke-width="0.89"/>
  <path id="Path_170779" data-name="Path 170779" d="M696.319,270.785a1.838,1.838,0,1,1-1.838-1.838,1.838,1.838,0,0,1,1.838,1.838" transform="translate(-528.525 -151.648)" fill="#fff"/>
  <path id="Path_170780" data-name="Path 170780" d="M696.319,270.785a1.838,1.838,0,1,1-1.838-1.838A1.838,1.838,0,0,1,696.319,270.785Z" transform="translate(-528.525 -151.648)" fill="none" stroke="#a061f6" stroke-miterlimit="10" stroke-width="0.89"/>
  <path id="Path_170781" data-name="Path 170781" d="M714.118,270.785a1.838,1.838,0,1,1-1.838-1.838,1.838,1.838,0,0,1,1.838,1.838" transform="translate(-538.153 -151.648)" fill="#fff"/>
  <path id="Path_170782" data-name="Path 170782" d="M714.118,270.785a1.838,1.838,0,1,1-1.838-1.838A1.838,1.838,0,0,1,714.118,270.785Z" transform="translate(-538.153 -151.648)" fill="none" stroke="#a061f6" stroke-miterlimit="10" stroke-width="0.89"/>
  <path id="Path_170783" data-name="Path 170783" d="M929.38,474.527H763.351a1.736,1.736,0,0,0,0,3.472H929.38a1.736,1.736,0,0,0,0-3.472" transform="translate(-565.813 -263.06)" fill="#e6e6e6"/>
  <path id="Path_170784" data-name="Path 170784" d="M929.38,502.115H763.351a1.736,1.736,0,0,0,0,3.472H929.38a1.736,1.736,0,0,0,0-3.472" transform="translate(-565.813 -278.01)" fill="#e6e6e6"/>
  <path id="Path_170785" data-name="Path 170785" d="M836.523,530.334H763.464a1.736,1.736,0,0,0,0,3.472h73.059a1.736,1.736,0,0,0,0-3.472" transform="translate(-565.888 -293.303)" fill="#e6e6e6"/>
  <rect id="Rectangle_151084" data-name="Rectangle 151084" width="14.469" height="6.535" transform="matrix(0.946, -0.324, 0.324, 0.946, 521.57, 401.61)" fill="#ffb7b8"/>
  <rect id="Rectangle_151085" data-name="Rectangle 151085" width="14.469" height="6.535" transform="matrix(0.946, -0.324, 0.324, 0.946, 521.57, 401.61)" fill="none" stroke="#4f2524" stroke-miterlimit="10" stroke-width="0.383"/>
  <rect id="Rectangle_151086" data-name="Rectangle 151086" width="6.535" height="16.32" transform="matrix(0.046, -0.999, 0.999, 0.046, 456.557, 412.85)" fill="#ffb7b8"/>
  <rect id="Rectangle_151087" data-name="Rectangle 151087" width="6.535" height="16.32" transform="matrix(0.046, -0.999, 0.999, 0.046, 456.557, 412.85)" fill="none" stroke="#4f2524" stroke-miterlimit="10" stroke-width="0.407"/>
  <path id="Path_170786" data-name="Path 170786" d="M1322.372,610.962l3.28,130.843c0,3.5,18.115,3.5,18.115,0,0-.829,8.025-101.293,8.025-101.293s36.663,95.586,36.759,95.983c.71,2.913,17.457-1.172,16.746-4.084L1373.847,605.8s-23.713,12.375-51.475,5.166" transform="translate(-869.138 -334.511)" fill="#2f2e40"/>
  <path id="Path_170787" data-name="Path 170787" d="M1322.372,610.962l3.28,130.843c0,3.5,18.115,3.5,18.115,0,0-.829,8.025-101.293,8.025-101.293s36.663,95.586,36.759,95.983c.71,2.913,17.457-1.172,16.746-4.084L1373.847,605.8S1350.134,618.171,1322.372,610.962Z" transform="translate(-869.138 -334.511)" fill="none" stroke="#4f2524" stroke-miterlimit="10" stroke-width="0.448"/>
  <path id="Path_170788" data-name="Path 170788" d="M1065.109,357.1l-78.654-12.652a4.7,4.7,0,0,1-3.9-5.388l7.459-46.367a4.7,4.7,0,0,1,5.388-3.895l78.655,12.653a4.7,4.7,0,0,1,3.895,5.388l-7.459,46.367a4.7,4.7,0,0,1-5.388,3.895" transform="translate(-685.305 -162.416)" fill="#fff"/>
  <path id="Path_170789" data-name="Path 170789" d="M1065.109,357.1l-78.654-12.652a4.7,4.7,0,0,1-3.9-5.388l7.459-46.367a4.7,4.7,0,0,1,5.388-3.895l78.655,12.653a4.7,4.7,0,0,1,3.895,5.388l-7.459,46.367A4.7,4.7,0,0,1,1065.109,357.1Z" transform="translate(-685.305 -162.416)" fill="none" stroke="#b3b3b3" stroke-miterlimit="10" stroke-width="1.28"/>
  <rect id="Rectangle_151088" data-name="Rectangle 151088" width="41.595" height="73.545" transform="matrix(0.159, -0.987, 0.987, 0.159, 305.368, 175.073)" fill="#e6e6e6"/>
  <path id="Path_170790" data-name="Path 170790" d="M1051.751,341.475a11,11,0,1,1-9.115-12.609,11,11,0,0,1,9.115,12.609" transform="translate(-710.949 -184.056)" fill="#fd6584"/>
  <path id="Path_170791" data-name="Path 170791" d="M1025.361,358.084l24.651-22.3s9.415,23.2,9.7,22.326,10.257-9.493,10.257-9.493l7.117,17.783Z" transform="translate(-708.497 -187.891)"/>
  <path id="Path_170792" data-name="Path 170792" d="M1291.857,498.034s8.577,4.085,8.577,3.676,26.3-39.61,26.222-44.924-25-35.13-29.49-37.172-19.674-3.811-22.872-6.535a68.069,68.069,0,0,1-1.214-8.975l-23.292-2.006s.408,6.079-1.633,8.938c-3.137,1.6-17.972.408-24.1,4.9s-18.788,19.6-18.788,19.6l-28.182-23.689-7.76,9.394s31.041,37.168,33.492,38.393,24.3-14.908,24.3-14.908l12.445,56.016s25.744,10.355,51.475-5.166c1.634-15.52-.613-46.34.408-46.97l12.457,12.866Z" transform="translate(-786.331 -223.908)" fill="#a060f4"/>
  <path id="Path_170793" data-name="Path 170793" d="M1291.857,498.034s8.577,4.085,8.577,3.676,26.3-39.61,26.222-44.924-25-35.13-29.49-37.172-19.674-3.811-22.872-6.535a68.069,68.069,0,0,1-1.214-8.975l-23.292-2.006s.408,6.079-1.633,8.938c-3.137,1.6-17.972.408-24.1,4.9s-18.788,19.6-18.788,19.6l-28.182-23.689-7.76,9.394s31.041,37.168,33.492,38.393,24.3-14.908,24.3-14.908l12.445,56.016s25.744,10.355,51.475-5.166c1.634-15.52-.613-46.34.408-46.97l12.457,12.866Z" transform="translate(-786.331 -223.908)" fill="none" stroke="#4f2524" stroke-miterlimit="10" stroke-width="0.494"/>
  <path id="Path_170794" data-name="Path 170794" d="M1242.735,516.294s-15.6-60.121-14.227-72.054c-1.377.459,0,13.309-23.362,26.273-2.451-1.225-32.508-37.409-32.508-37.409l1.872-2.867-4.839,5.857s31.041,37.168,33.492,38.393,24.3-14.908,24.3-14.908l12.445,56.016a51.1,51.1,0,0,0,9.681,2.487,43.188,43.188,0,0,1-6.858-1.789" transform="translate(-786.553 -239.146)" fill="#8856d8"/>
  <path id="Path_170795" data-name="Path 170795" d="M1434.882,547.993s12.373-39.952,12.369-39.953l-14.711-12.366c-.211.13-5.048-5.049-6.218-2.96l16.793,17.146-12.049,36.555" transform="translate(-925.382 -272.704)" fill="#8856d8"/>
  <path id="Path_170796" data-name="Path 170796" d="M1332.262,338.839s-1.962-5.257-6.078-3.559c-4.246,2.861-.64,9.218.106,10.152s2.718,3.772,3.644,3.679,2.328-10.272,2.328-10.272" transform="translate(-870.131 -187.421)" fill="#ffb7b8"/>
  <path id="Path_170797" data-name="Path 170797" d="M1332.262,338.839s-1.962-5.257-6.078-3.559c-4.246,2.861-.64,9.218.106,10.152s2.718,3.772,3.644,3.679S1332.262,338.839,1332.262,338.839Z" transform="translate(-870.131 -187.421)" fill="none" stroke="#4f2524" stroke-miterlimit="10" stroke-width="0.37"/>
  <path id="Path_170798" data-name="Path 170798" d="M1332.262,338.839s-1.962-5.257-6.078-3.559c-4.246,2.861-.64,9.218.106,10.152s2.718,3.772,3.644,3.679S1332.262,338.839,1332.262,338.839Z" transform="translate(-870.131 -187.421)" fill="none" stroke="#4f2524" stroke-miterlimit="10" stroke-width="0.889"/>
  <path id="Path_170799" data-name="Path 170799" d="M1334.107,346.345c-1.241-1.926-2.805-5.532-5.646-4.221a2.513,2.513,0,0,1,.91-.476c2.589-.493,4.058,2.691,4.736,4.7" transform="translate(-872.463 -191.021)" fill="#4f2524"/>
  <path id="Path_170800" data-name="Path 170800" d="M1333.487,346.859c-.864-1.09-.87-3.027.428-3.784a4.63,4.63,0,0,0-.428,3.784" transform="translate(-874.856 -191.821)" fill="#4f2524"/>
  <path id="Path_170801" data-name="Path 170801" d="M1337.613,303.22c-.222-.352.017-11.838-.2-13.433s-.914-13.493,2.774-11.333c1.105.647,1.1,2.413,1.1,2.413s-1.728-10.857,5.882-10.462a14.005,14.005,0,0,1,8.769,3.983c2.2,2.653,3.074,3.72,3.063,3.687-.068-.2-4.705-4.713-1.157-6.9,4.072-1.6,9.442,8.417,9.656,8.7s-1.892-4.137,1.5-2.906,7.483,5.613,7.437,8.944-2.286,21-3.349,21.147-35.484-3.842-35.484-3.842" transform="translate(-877.172 -152.451)" fill="#2f2e40"/>
  <path id="Path_170802" data-name="Path 170802" d="M1337.521,302.714c.037.073,0-.018,0-.061-.005-.118-.017-.236-.023-.354-.018-.375-.023-.752-.029-1.127-.016-1.132-.014-2.264-.013-3.4,0-2.387.037-4.777-.028-7.163-.1-3.567-.714-7.25.276-10.757.172-.607.5-1.688,1.28-1.724,1.165-.055,1.657,1.44,1.664,2.378l.582-.079a13.981,13.981,0,0,1,.561-6.888,4.762,4.762,0,0,1,3.56-3.119c2.874-.53,6.05.8,8.347,2.432a10.2,10.2,0,0,1,1.83,1.555c.561.653,1.1,1.326,1.649,1.989a11.78,11.78,0,0,0,1.272,1.528.3.3,0,0,0,.419,0h0a.31.31,0,0,0,.047-.358,6.409,6.409,0,0,0-.8-.965,9.734,9.734,0,0,1-1.261-1.993,3.055,3.055,0,0,1-.226-2.439,1.975,1.975,0,0,1,1.962-1.228c1.556.1,2.908,1.42,3.911,2.492a28.313,28.313,0,0,1,3.08,4.067c.354.55.695,1.11,1.027,1.674.11.19.331.76.641.641a.313.313,0,0,0,.218-.286,2.866,2.866,0,0,0-.251-.832,3.5,3.5,0,0,1-.2-1.448c.238-1.571,3.3.5,3.868.9a13.1,13.1,0,0,1,4.343,5.028,7.19,7.19,0,0,1,.5,3.754c-.222,2.924-.593,5.84-.988,8.744-.4,2.939-.807,5.9-1.471,8.79-.1.446-.211.891-.351,1.327-.06.185-.25.54-.271.634-.006.027.094-.011.056-.016-.053-.007-.111,0-.165,0-.2-.01-.4-.023-.6-.038-1.775-.136-3.547-.332-5.318-.517-5.823-.611-11.641-1.268-17.458-1.927-3.9-.441-7.8-1.007-11.7-1.338-.065-.006-.13-.015-.194-.022-.378-.044-.375.548,0,.592q5.3.614,10.6,1.214c6.1.693,12.2,1.383,18.3,2.026,1.9.2,3.793.411,5.694.559a2.261,2.261,0,0,0,1.072-.008c.49-.252.634-1.233.754-1.7a78.766,78.766,0,0,0,1.546-8.853c.426-3.068.821-6.148,1.069-9.237a8.175,8.175,0,0,0-.281-3.6,12.726,12.726,0,0,0-3.872-5.179,12.315,12.315,0,0,0-2.686-1.757,3.451,3.451,0,0,0-2.214-.478c-1.1.3-.87,1.711-.648,2.537.055.2.12.405.187.6.026.079.083.356.091.24l.218-.285h0l.288.076c.077.061-.056-.1-.095-.167-.111-.188-.22-.377-.332-.564q-.534-.9-1.107-1.771a25.487,25.487,0,0,0-3.5-4.393c-1.069-1.03-2.51-2.176-4.091-2.075a2.759,2.759,0,0,0-2.244,3.649,7.863,7.863,0,0,0,1.356,2.584,14.668,14.668,0,0,1,1.039,1.281c.016-.12.031-.239.046-.359h.418a10.562,10.562,0,0,1-1.142-1.372,20.7,20.7,0,0,0-3.149-3.36,13.127,13.127,0,0,0-8.624-3.02,5.22,5.22,0,0,0-4.333,2.759,11.01,11.01,0,0,0-1.13,4.9,16.856,16.856,0,0,0,.169,3.171c.053.335.584.248.581-.078a3.012,3.012,0,0,0-1.449-2.774,1.516,1.516,0,0,0-1.881.343,5.231,5.231,0,0,0-.982,2.517,23.319,23.319,0,0,0-.338,3.665,47.747,47.747,0,0,0,.2,5.382c.2,2.283.078,4.619.074,6.907,0,1.437-.009,2.875.007,4.312.005.478.01.957.033,1.436a1.786,1.786,0,0,0,.1.714c.174.339.685.04.511-.3" transform="translate(-876.825 -152.095)" fill="#4f2524"/>
  <path id="Path_170803" data-name="Path 170803" d="M1410.052,348s3.076-4.693,6.714-2.127c3.508,3.729-1.414,9.131-2.349,9.877s-3.484,3.077-4.367,2.782,0-10.532,0-10.532" transform="translate(-916.365 -192.927)" fill="#ffb7b8"/>
  <path id="Path_170804" data-name="Path 170804" d="M1410.052,348s3.076-4.693,6.714-2.127c3.508,3.729-1.414,9.131-2.349,9.877s-3.484,3.077-4.367,2.782S1410.052,348,1410.052,348Z" transform="translate(-916.365 -192.927)" fill="none" stroke="#4f2524" stroke-miterlimit="10" stroke-width="0.37"/>
  <path id="Path_170805" data-name="Path 170805" d="M1410.052,348s3.076-4.693,6.714-2.127c3.508,3.729-1.414,9.131-2.349,9.877s-3.484,3.077-4.367,2.782S1410.052,348,1410.052,348Z" transform="translate(-916.365 -192.927)" fill="none" stroke="#4f2524" stroke-miterlimit="10" stroke-width="0.889"/>
  <path id="Path_170806" data-name="Path 170806" d="M1409.667,355.5c1.1-1.8,3.243-4.588,5.657-3.533a2.5,2.5,0,0,1,.782.665c-2.483-1.906-4.8,1.262-6.439,2.867" transform="translate(-916.37 -196.517)" fill="#4f2524"/>
  <path id="Path_170807" data-name="Path 170807" d="M1416.2,356.325a4.628,4.628,0,0,0,.419-3.785c1.1,1.026.664,2.913-.419,3.785" transform="translate(-919.908 -196.951)" fill="#4f2524"/>
  <path id="Path_170808" data-name="Path 170808" d="M1335.511,303.949c.625-.323.694-6.2,8.923-7.832s16.238,2.211,16.238,2.211a10.224,10.224,0,0,1,6.173,9.718c-.222,7.237.147,30.24.147,30.24s1.461,7.207-6.251,11.424c-4.094,2.682-21.781,2.315-28.389-3.527-6.322-4.712-3.458-11.65-3.543-12.172s6.7-30.061,6.7-30.061" transform="translate(-872.31 -166.188)" fill="#ffb7b8"/>
  <path id="Path_170809" data-name="Path 170809" d="M1335.511,303.949c.625-.323.694-6.2,8.923-7.832s16.238,2.211,16.238,2.211a10.224,10.224,0,0,1,6.173,9.718c-.222,7.237.147,30.24.147,30.24s1.461,7.207-6.251,11.424c-4.094,2.682-21.781,2.315-28.389-3.527-6.322-4.712-3.458-11.65-3.543-12.172S1335.511,303.949,1335.511,303.949Z" transform="translate(-872.31 -166.188)" fill="none" stroke="#4f2524" stroke-miterlimit="10" stroke-width="0.37"/>
  <path id="Path_170810" data-name="Path 170810" d="M1356.556,314.78s2.178,5.477,1.467,8.712-2.2,12.662-2.2,12.662-.552,1.421,1.463,2.519a16.9,16.9,0,0,0,5.158,1.45c1.723.193-5,1.01-6.863-.245s-2.564-2.032-2.113-2.941,2.19-8.652,2.19-8.652l.894-4.872-5.836-3.968.137-3.561Z" transform="translate(-884.473 -176.501)" fill="#e79e9c"/>
  <path id="Path_170811" data-name="Path 170811" d="M1350.64,375.9c.028,0,.167.226.513.538.039.035,4.185,2.612,11.172,1.712,6.5-1.569,6.449-2.441,6.891-2.693,0,0-2.245,6.6-5.871,8.719-3.932,1.819-6.742.77-7.708-.1-.783-.653-1-.9-2.276-3.466a20.675,20.675,0,0,0-2.72-4.71" transform="translate(-884.433 -209.374)" fill="#833231"/>
  <path id="Path_170812" data-name="Path 170812" d="M1362.506,379.368s-.772,3.105.493,3.67c.753.338,5.724.838,8.516-1.645a7.765,7.765,0,0,0,2.293-3.584,26.854,26.854,0,0,1-5.189,1.612c-1.886.532-6.113-.054-6.113-.054" transform="translate(-890.727 -210.646)" fill="#fff"/>
  <path id="Path_170813" data-name="Path 170813" d="M1362.281,380.755c.015.17,3.019.975,10.513-1.182a8.829,8.829,0,0,0,.966-2.2c.2-.436-4.715,2.972-11.247,1.911,0,0-.246,1.3-.231,1.474" transform="translate(-890.731 -210.386)" fill="#becbce"/>
  <path id="Path_170814" data-name="Path 170814" d="M1349.23,376.613c0-.014.007-.057,0-.011s0,0,0-.015.006-.039.01-.058a2.508,2.508,0,0,1,.082-.323c.011-.032.022-.064.034-.1l.019-.05.01-.025c-.008.021-.012.028,0,0a2.048,2.048,0,0,1,.1-.2c.02-.034.041-.067.064-.1l.03-.043c.02-.029,0,0,0,0l.029-.035a1.334,1.334,0,0,1,.175-.175l.024-.02c-.034.026,0,0,0,0l.06-.04c.042-.026.087-.048.131-.071s.007,0,0,0l.048-.019c.025-.009.051-.017.076-.024a1.273,1.273,0,0,1,.172-.037.2.2,0,0,0,.139-.244.2.2,0,0,0-.244-.138,1.746,1.746,0,0,0-1.327,1.5,2.206,2.206,0,0,0-.035.225.2.2,0,0,0,.2.2.2.2,0,0,0,.2-.2" transform="translate(-883.455 -209.061)" fill="#4c1f1f"/>
  <path id="Path_170815" data-name="Path 170815" d="M1389.326,373.456c-.03-.013-.037-.019-.056-.028s-.022-.018-.011-.007c.033.03-.02-.033-.007-.011s.033.049.049.072a2.3,2.3,0,0,0,.2.258,2.475,2.475,0,0,0,.889.592,4.816,4.816,0,0,0,.954.282.2.2,0,0,0,.244-.139.2.2,0,0,0-.139-.244,3.63,3.63,0,0,1-1.379-.518l-.044-.032c-.009-.007-.052-.04-.023-.017-.029-.023-.058-.048-.086-.072a1.712,1.712,0,0,1-.139-.138c-.018-.019-.035-.039-.051-.059l-.024-.03c.024.029.016.022,0,0s-.044-.063-.066-.1a.45.45,0,0,0-.2-.2.2.2,0,0,0-.244.139.2.2,0,0,0,.139.244" transform="translate(-905.285 -208.071)" fill="#4c1f1f"/>
  <path id="Path_170816" data-name="Path 170816" d="M1350.427,375.858c.266.2.425.5.726.663a10.1,10.1,0,0,0,1.01.478,17.236,17.236,0,0,0,4.434,1.148,18.291,18.291,0,0,0,7.048-.388,20.452,20.452,0,0,0,4.347-1.508c.432-.229.74-.6,1.145-.837l-.194-.149a24.273,24.273,0,0,1-1.326,3.075,15.016,15.016,0,0,1-3.66,4.99,7.889,7.889,0,0,1-7.094,1.207,5.27,5.27,0,0,1-2.855-2.814,36.713,36.713,0,0,0-3.421-6.073c-.106-.133-.292.055-.187.187a36.419,36.419,0,0,1,3.38,6.02,5.6,5.6,0,0,0,2.71,2.818,8.238,8.238,0,0,0,6.885-.607,12.228,12.228,0,0,0,4.076-4.843,25.077,25.077,0,0,0,1.746-3.889.133.133,0,0,0-.194-.149c-.3.176-.52.466-.819.652a14.218,14.218,0,0,1-3.565,1.377,18.16,18.16,0,0,1-3.691.773,21.757,21.757,0,0,1-3.437-.01,17.862,17.862,0,0,1-4.807-1.055,10.923,10.923,0,0,1-1.347-.6c-.323-.175-.49-.475-.777-.691-.136-.1-.267.127-.133.228" transform="translate(-884.286 -209.219)" fill="#4c1f1f"/>
  <path id="Path_170817" data-name="Path 170817" d="M1387.265,310.709a1.813,1.813,0,0,1,2.141-1.5,6.8,6.8,0,0,1,3.651,1.757s1.418,1.051,1,2.254c-.561,1.348-1.366,1.043-1.432,1a10.878,10.878,0,0,0-4.219-1.7c-1.624-.164-1.137-1.805-1.137-1.805" transform="translate(-904.212 -173.449)" fill="#552424"/>
  <path id="Path_170818" data-name="Path 170818" d="M1387.265,310.709a1.813,1.813,0,0,1,2.141-1.5,6.8,6.8,0,0,1,3.651,1.757s1.418,1.051,1,2.254c-.561,1.348-1.366,1.043-1.432,1a10.878,10.878,0,0,0-4.219-1.7c-1.624-.164-1.137-1.805-1.137-1.805" transform="translate(-904.212 -173.449)" fill="#2f2e40"/>
  <path id="Path_170819" data-name="Path 170819" d="M1387.265,310.709a1.813,1.813,0,0,1,2.141-1.5,6.8,6.8,0,0,1,3.651,1.757s1.418,1.051,1,2.254c-.561,1.348-1.366,1.043-1.432,1a10.878,10.878,0,0,0-4.219-1.7C1386.777,312.35,1387.265,310.709,1387.265,310.709Z" transform="translate(-904.212 -173.449)" fill="none" stroke="#4f2524" stroke-miterlimit="10" stroke-width="0.43"/>
  <path id="Path_170820" data-name="Path 170820" d="M1344.295,297.217s-4.529,9.146-4.434,13.111,4.255,5.622,4.255,5.622l-6.452.76s-6.821,17.291-5.466,23.112c.317,4.571,2.931,6.436,2.931,6.436s5.1,5.192,21.5,3.626c6.8-.722,7.257-2.011,7.619-1.927s-2.43,4.471-14.686,4.276c-11.515-.766-17.675-5.73-17.675-5.73s-5.033-3.071-2.564-12.934c2.64-10.544,6.793-29.506,6.793-29.506s1.084-3.455,2.023-4.047a21.773,21.773,0,0,1,6.158-2.8" transform="translate(-872.53 -167.002)" fill="#e79e9c"/>
  <path id="Path_170821" data-name="Path 170821" d="M1355.416,311.225a1.713,1.713,0,0,0-1.664-1.828,6.456,6.456,0,0,0-3.74.853s-1.529.671-1.392,1.864c.237,1.357,1.044,1.245,1.115,1.219a10.329,10.329,0,0,1,4.253-.686c1.534.189,1.427-1.423,1.427-1.423" transform="translate(-883.336 -173.553)" fill="#552424"/>
  <path id="Path_170822" data-name="Path 170822" d="M1355.416,311.225a1.713,1.713,0,0,0-1.664-1.828,6.456,6.456,0,0,0-3.74.853s-1.529.671-1.392,1.864c.237,1.357,1.044,1.245,1.115,1.219a10.329,10.329,0,0,1,4.253-.686c1.534.189,1.427-1.423,1.427-1.423" transform="translate(-883.336 -173.553)" fill="#2f2e40"/>
  <path id="Path_170823" data-name="Path 170823" d="M1355.416,311.225a1.713,1.713,0,0,0-1.664-1.828,6.456,6.456,0,0,0-3.74.853s-1.529.671-1.392,1.864c.237,1.357,1.044,1.245,1.115,1.219a10.329,10.329,0,0,1,4.253-.686C1355.523,312.837,1355.416,311.225,1355.416,311.225Z" transform="translate(-883.336 -173.553)" fill="none" stroke="#4f2524" stroke-miterlimit="10" stroke-width="0.43"/>
  <path id="Path_170824" data-name="Path 170824" d="M1335.561,303.949c.417-.8.694-6.2,8.923-7.832s16.238,2.211,16.238,2.211a10.224,10.224,0,0,1,6.173,9.718c-.222,7.237.241,29.4.247,30.365-.1,1.314.793,8.544-7.006,11.6-5.3,2.382-21.127,2.018-27.734-3.825-5.22-4.008-4.173-8.3-3.543-12.172S1335.561,303.949,1335.561,303.949Z" transform="translate(-872.36 -166.188)" fill="none" stroke="#4f2524" stroke-miterlimit="10" stroke-width="0.889"/>
  <path id="Path_170825" data-name="Path 170825" d="M1359.71,335.574c-.3,2.172-1.2,5.24-1.7,7.41-.3,1.229-.6,2.461-.881,3.692-.182,1.085-.81,2.548.138,3.423,2.185,1.99,5.519,1.933,8.272,1.452a21.312,21.312,0,0,1-2.165.341c-2.137.19-4.716-.135-6.274-1.545-1.149-.972-.6-2.542-.351-3.758.973-3.679,1.744-7.41,2.958-11.015" transform="translate(-887.55 -187.765)" fill="#843616"/>
  <path id="Path_170826" data-name="Path 170826" d="M1352.776,330.168a4.47,4.47,0,1,1-3.945-4.939,4.47,4.47,0,0,1,3.945,4.939" transform="translate(-880.767 -182.138)" fill="#fff"/>
  <path id="Path_170827" data-name="Path 170827" d="M1352.776,330.168a4.47,4.47,0,1,1-3.945-4.939A4.47,4.47,0,0,1,1352.776,330.168Z" transform="translate(-880.767 -182.138)" fill="none" stroke="#843616" stroke-miterlimit="10" stroke-width="0.445"/>
  <path id="Path_170828" data-name="Path 170828" d="M1348.545,333.808a2.347,2.347,0,1,1-2.071-2.594,2.347,2.347,0,0,1,2.071,2.594" transform="translate(-880.768 -185.386)" fill="#642e2a"/>
  <path id="Path_170829" data-name="Path 170829" d="M1348.545,333.808a2.347,2.347,0,1,1-2.071-2.594A2.347,2.347,0,0,1,1348.545,333.808Z" transform="translate(-880.768 -185.386)" fill="none" stroke="#4f2524" stroke-miterlimit="10" stroke-width="0.387"/>
  <path id="Path_170830" data-name="Path 170830" d="M1347.222,333.463a.612.612,0,1,1-.54-.676.612.612,0,0,1,.54.676" transform="translate(-881.923 -186.242)" fill="#fff"/>
  <path id="Path_170831" data-name="Path 170831" d="M1388.156,334.438a4.47,4.47,0,1,1-3.945-4.939,4.47,4.47,0,0,1,3.945,4.939" transform="translate(-899.909 -184.452)" fill="#fff"/>
  <path id="Path_170832" data-name="Path 170832" d="M1388.156,334.438a4.47,4.47,0,1,1-3.945-4.939A4.47,4.47,0,0,1,1388.156,334.438Z" transform="translate(-899.909 -184.452)" fill="none" stroke="#843616" stroke-miterlimit="10" stroke-width="0.445"/>
  <path id="Path_170833" data-name="Path 170833" d="M1383.786,337.3a2.347,2.347,0,1,1-2.071-2.593,2.347,2.347,0,0,1,2.071,2.593" transform="translate(-899.835 -187.279)" fill="#642e2a"/>
  <path id="Path_170834" data-name="Path 170834" d="M1383.786,337.3a2.347,2.347,0,1,1-2.071-2.593A2.347,2.347,0,0,1,1383.786,337.3Z" transform="translate(-899.835 -187.279)" fill="none" stroke="#4f2524" stroke-miterlimit="10" stroke-width="0.387"/>
  <path id="Path_170835" data-name="Path 170835" d="M1382.462,336.954a.612.612,0,1,1-.54-.676.611.611,0,0,1,.54.676" transform="translate(-900.99 -188.134)" fill="#fff"/>
  <path id="Path_170836" data-name="Path 170836" d="M1304.974,907.859c-1.708-.171-21.334,7.181-19.371,11.266s36.5-.817,38.075-2.042-.393-6.127-1.178-7.76-7.458,3.267-17.526-1.463" transform="translate(-849.198 -497.944)" fill="#2f2e40"/>
  <path id="Path_170837" data-name="Path 170837" d="M1304.974,907.859c-1.708-.171-21.334,7.181-19.371,11.266s36.5-.817,38.075-2.042-.393-6.127-1.178-7.76S1315.042,912.59,1304.974,907.859Z" transform="translate(-849.198 -497.944)" fill="none" stroke="#4f2524" stroke-miterlimit="10" stroke-width="0.44"/>
  <path id="Path_170838" data-name="Path 170838" d="M1471.012,893.127c-.311-.755,9.6,2.246,15.316-3.88,6.74,5.106,11.641,21.443,7.377,20.4-3.5.638-16.159-1-22.694-16.516" transform="translate(-949.558 -487.875)" fill="#2f2e40"/>
  <path id="Path_170839" data-name="Path 170839" d="M1471.012,893.127c-.311-.755,9.6,2.246,15.316-3.88,6.74,5.106,11.641,21.443,7.377,20.4C1490.209,910.282,1477.547,908.648,1471.012,893.127Z" transform="translate(-949.558 -487.875)" fill="none" stroke="#4f2524" stroke-miterlimit="10" stroke-width="0.448"/>
  <path id="Path_170840" data-name="Path 170840" d="M1169.027,395.378c.817-2.451,3.05-6.487,3.159-11.436s-3.962-12.294-3.962-12.294-1.751,13.206-3.128,13.975-4.645-4.132-7.5-5.357-3.676,2.45-2.859,4.493,4.9,6.535,4.9,6.127-3.268,10.441,1.634,13.887a78.7,78.7,0,0,0,7.76-9.394" transform="translate(-778.322 -207.329)" fill="#ffb7b8"/>
  <path id="Path_170841" data-name="Path 170841" d="M1169.027,395.378c.817-2.451,3.05-6.487,3.159-11.436s-3.962-12.294-3.962-12.294-1.751,13.206-3.128,13.975-4.645-4.132-7.5-5.357-3.676,2.45-2.859,4.493,4.9,6.535,4.9,6.127-3.268,10.441,1.634,13.887A78.7,78.7,0,0,0,1169.027,395.378Z" transform="translate(-778.322 -207.329)" fill="none" stroke="#4f2524" stroke-miterlimit="10" stroke-width="0.386"/>
  <path id="Path_170842" data-name="Path 170842" d="M1436.313,611.135l3.925,16.639s1.385,3.783,4.244,3.375,9.394-2.859,9.394-2.859a6.9,6.9,0,0,0,1.225-5.718c-.817-3.268-3.593-1.414-3.593-1.414l-2.533,3.048s-.817-6.944-4.085-9.394-8.577-3.676-8.577-3.676" transform="translate(-930.787 -337.113)" fill="#ffb7b8"/>
  <path id="Path_170843" data-name="Path 170843" d="M1436.313,611.135l3.925,16.639s1.385,3.783,4.244,3.375,9.394-2.859,9.394-2.859a6.9,6.9,0,0,0,1.225-5.718c-.817-3.268-3.593-1.414-3.593-1.414l-2.533,3.048s-.817-6.944-4.085-9.394S1436.313,611.135,1436.313,611.135Z" transform="translate(-930.787 -337.113)" fill="none" stroke="#4f2524" stroke-miterlimit="10" stroke-width="0.386"/>
  <path id="Path_170844" data-name="Path 170844" d="M1341.087,421.574s9.394,9.394,26.14,2.042" transform="translate(-879.264 -234.364)" fill="#a060f4"/>
  <path id="Path_170845" data-name="Path 170845" d="M1341.087,421.574s9.394,9.394,26.14,2.042" transform="translate(-879.264 -234.364)" fill="none" stroke="#4f2524" stroke-miterlimit="10" stroke-width="0.494"/>
  <path id="Path_170846" data-name="Path 170846" d="M1294.73,476.458c.2-.2-1.838-7.964,1.429-15.725" transform="translate(-853.977 -255.595)" fill="#8856d8"/>
  <path id="Path_170847" data-name="Path 170847" d="M1294.73,476.458c.2-.2-1.838-7.964,1.429-15.725" transform="translate(-853.977 -255.595)" fill="none" stroke="#4f2524" stroke-miterlimit="10" stroke-width="0.5"/>
  <path id="Path_170848" data-name="Path 170848" d="M706.616,365.909l-46.932,16.126a3.179,3.179,0,0,1-4.041-1.973L644.4,347.335a3.18,3.18,0,0,1,1.974-4.041L693.3,327.167a3.18,3.18,0,0,1,4.041,1.974l11.245,32.727a3.179,3.179,0,0,1-1.974,4.04" transform="translate(-502.329 -183.143)" fill="#fff"/>
  <path id="Path_170849" data-name="Path 170849" d="M706.616,365.909l-46.932,16.126a3.179,3.179,0,0,1-4.041-1.973L644.4,347.335a3.18,3.18,0,0,1,1.974-4.041L693.3,327.167a3.18,3.18,0,0,1,4.041,1.974l11.245,32.727A3.179,3.179,0,0,1,706.616,365.909Z" transform="translate(-502.329 -183.143)" fill="none" stroke="#b3b3b3" stroke-miterlimit="10" stroke-width="2"/>
  <path id="Path_170850" data-name="Path 170850" d="M678.275,367.717,696,375.79l9.033-17.267Z" transform="translate(-520.751 -200.203)" fill="#a061f6"/>
  <path id="Path_170851" data-name="Path 170851" d="M728.059,370.775l5.664-10.994,5.8,16.882Z" transform="translate(-547.682 -200.884)" fill="#a061f6"/>
  <path id="Path_170852" data-name="Path 170852" d="M698.8,391.761l5.534,2.342,3.629-5.491,11.169,5.027-26.756,9.193Z" transform="translate(-528.379 -216.508)" fill="#a061f6"/>
  <path id="Path_170853" data-name="Path 170853" d="M682.085,397.128l6.527-10.115-11.847-5.367Z" transform="translate(-519.935 -212.733)" fill="#a061f6"/>
  <line id="Line_88848" data-name="Line 88848" x1="5.31" y1="5.309" transform="translate(500.624 220.23)" fill="#a060f4"/>
  <line id="Line_88849" data-name="Line 88849" x1="5.31" y1="5.309" transform="translate(500.624 220.23)" fill="none" stroke="#4f2524" stroke-miterlimit="10" stroke-width="0.494"/>
  <path id="Path_170854" data-name="Path 170854" d="M593.672,453.507c-2.876,1.017-5.228,4.864-.712,11.932,5.05,8.239,33.189,15.918,33.189,15.918l22.43-34.446s-.361-4.538-4.937-4.443c-4.8,6.284-20.238,24.549-20.238,24.549s-24.632-15.5-29.732-13.509" transform="translate(-473.231 -245.718)" fill="#fd6584"/>
  <path id="Path_170855" data-name="Path 170855" d="M593.672,453.507c-2.876,1.017-5.228,4.864-.712,11.932,5.05,8.239,33.189,15.918,33.189,15.918l22.43-34.446s-.361-4.538-4.937-4.443c-4.8,6.284-20.238,24.549-20.238,24.549S598.772,451.518,593.672,453.507Z" transform="translate(-473.231 -245.718)" fill="none" stroke="#4f2524" stroke-miterlimit="10" stroke-width="0.5"/>
  <path id="Path_170856" data-name="Path 170856" d="M646.521,452.918h0l-20.606,31.811s-28.138-7.678-33.189-15.918a19.523,19.523,0,0,1-1.746-3.355,17.143,17.143,0,0,0,2.205,4.732c5.05,8.239,33.189,15.918,33.189,15.918L648.816,452s-1.377,1.377-2.295.918" transform="translate(-473.528 -250.88)" fill="#e25979"/>
  <path id="Path_170857" data-name="Path 170857" d="M568.038,921.834l7.95.489.025-8.393-7.7.639Z" transform="translate(-461.149 -501.23)" fill="#ffb7b8"/>
  <path id="Path_170858" data-name="Path 170858" d="M568.038,921.834l7.95.489.025-8.393-7.7.639Z" transform="translate(-461.149 -501.23)" fill="none" stroke="#4f2524" stroke-miterlimit="10" stroke-width="1.088"/>
  <path id="Path_170859" data-name="Path 170859" d="M562.74,440.49c-.907.022-7.784-2.988-10.842-16.977s-10.46-1.109-10.46-1.109,7.128,13.437-1.852,17.283S546.7,452.67,546.7,452.67s16.365,1.421,16.321-.393-.284-11.787-.284-11.787" transform="translate(-444.255 -231.909)" fill="#ffb7b8"/>
  <path id="Path_170860" data-name="Path 170860" d="M562.74,440.49c-.907.022-7.784-2.988-10.842-16.977s-10.46-1.109-10.46-1.109,7.128,13.437-1.852,17.283S546.7,452.67,546.7,452.67s16.365,1.421,16.321-.393S562.74,440.49,562.74,440.49Z" transform="translate(-444.255 -231.909)" fill="none" stroke="#4f2524" stroke-miterlimit="10" stroke-width="0.483"/>
  <path id="Path_170861" data-name="Path 170861" d="M574.789,452.267c-.452.118-4.359-1.114-8.024-10.135-1.914-4.711-3.3-4.379-4.2-2.986.729-2.232,2.366-5.168,4.973,1.247,3.665,9.022,7.572,10.254,8.023,10.136l1.938,7.863c.07.283-.341.55-1.007.793l-1.7-6.918" transform="translate(-458.161 -242.467)" fill="#e79e9c"/>
  <path id="Path_170862" data-name="Path 170862" d="M464.076,929.831l8.857.467,1.385-8.425-8.6.66Z" transform="translate(-404.9 -505.528)" fill="#ffb7b8"/>
  <path id="Path_170863" data-name="Path 170863" d="M464.076,929.831l8.857.467,1.385-8.425-8.6.66Z" transform="translate(-404.9 -505.528)" fill="none" stroke="#4f2524" stroke-miterlimit="10" stroke-width="1.088"/>
  <path id="Path_170864" data-name="Path 170864" d="M578.061,393.139s4.393.5,3.743,4.325c2.939.774,4.75,2.875,4.087,4.949,2.009-.205,5.262,5.652-.307,7.085,1.015,2.787-1.87,5.808-5.373,4.416-.8,2.438-3.378,4.872-7.313,2.779-2.045,1.537-3.27-.08-3.27-.08Z" transform="translate(-461.98 -218.969)" fill="#2f2e40"/>
  <path id="Path_170865" data-name="Path 170865" d="M578.061,393.139s4.393.5,3.743,4.325c2.939.774,4.75,2.875,4.087,4.949,2.009-.205,5.262,5.652-.307,7.085,1.015,2.787-1.87,5.808-5.373,4.416-.8,2.438-3.378,4.872-7.313,2.779-2.045,1.537-3.27-.08-3.27-.08Z" transform="translate(-461.98 -218.969)" fill="none" stroke="#4f2524" stroke-miterlimit="10" stroke-width="0.556"/>
  <path id="Path_170866" data-name="Path 170866" d="M526.78,428.508c-.15.039-3.495,6.415-9.654,1.962-2.663,1.244-5.292,2.2-7.684-1.634-2.51,1.644-5.891-.834-4.936-4.661a3.582,3.582,0,0,1,.706-6.735c-.772-1.175-2.266-3.539,1.076-5.9-.235-.084,2.263-1.857,4.357-.418,1.865,1.282,16.136,17.382,16.136,17.382" transform="translate(-425.653 -228.411)" fill="#2f2e40"/>
  <path id="Path_170867" data-name="Path 170867" d="M526.78,428.508c-.15.039-3.495,6.415-9.654,1.962-2.663,1.244-5.292,2.2-7.684-1.634-2.51,1.644-5.891-.834-4.936-4.661a3.582,3.582,0,0,1,.706-6.735c-.772-1.175-2.266-3.539,1.076-5.9-.235-.084,2.263-1.857,4.357-.418C512.509,412.408,526.78,428.508,526.78,428.508Z" transform="translate(-425.653 -228.411)" fill="none" stroke="#4f2524" stroke-miterlimit="10" stroke-width="0.556"/>
  <path id="Path_170868" data-name="Path 170868" d="M507.116,394.284s-4.662-4.866-5.729,0,8.672,13.474,11.883,10.163c-5.094-8.561-6.154-10.161-6.154-10.161" transform="translate(-425.043 -218.408)" fill="#ffb7b8"/>
  <path id="Path_170869" data-name="Path 170869" d="M507.116,394.284s-4.662-4.866-5.729,0,8.672,13.474,11.883,10.163C508.176,395.884,507.116,394.284,507.116,394.284Z" transform="translate(-425.043 -218.408)" fill="none" stroke="#4f2524" stroke-miterlimit="10" stroke-width="0.505"/>
  <path id="Path_170870" data-name="Path 170870" d="M507.691,404.722c.092-.06,3.225-1.717,5.283.777" transform="translate(-428.498 -224.906)" fill="#e79e9c"/>
  <path id="Path_170871" data-name="Path 170871" d="M507.691,404.6c1.638-1.076,4.149-.969,5.283.777a4.65,4.65,0,0,0-5.283-.777" transform="translate(-428.498 -224.786)" fill="#4f2524"/>
  <path id="Path_170872" data-name="Path 170872" d="M514.534,404.575a2.267,2.267,0,0,0,.123,2.461" transform="translate(-432.043 -225.149)" fill="none" stroke="#4f2524" stroke-miterlimit="10" stroke-width="0.505"/>
  <path id="Path_170873" data-name="Path 170873" d="M563.921,382.375s-3.412-4.994-5.9-1.847c-2.159,4.435,2.9,10.075,3.8,10.834s3.437,3.16,4.1,2.761-2.009-11.749-2.009-11.749" transform="translate(-455.443 -211.562)" fill="#da9c72"/>
  <path id="Path_170874" data-name="Path 170874" d="M563.921,382.375s-3.412-4.994-5.9-1.847c-2.159,4.435,2.9,10.075,3.8,10.834s3.437,3.16,4.1,2.761S563.921,382.375,563.921,382.375Z" transform="translate(-455.443 -211.562)" fill="none" stroke="#4f2524" stroke-miterlimit="10" stroke-width="0.556"/>
  <path id="Path_170875" data-name="Path 170875" d="M563.921,382.375s-3.412-4.994-5.9-1.847c-2.159,4.435,2.9,10.075,3.8,10.834s3.437,3.16,4.1,2.761-2.009-11.749-2.009-11.749" transform="translate(-455.443 -211.562)" fill="#da9c72"/>
  <path id="Path_170876" data-name="Path 170876" d="M563.921,382.375s-3.412-4.994-5.9-1.847c-2.159,4.435,2.9,10.075,3.8,10.834s3.437,3.16,4.1,2.761S563.921,382.375,563.921,382.375Z" transform="translate(-455.443 -211.562)" fill="none" stroke="#4f2524" stroke-miterlimit="10" stroke-width="0.556"/>
  <path id="Path_170877" data-name="Path 170877" d="M566.967,390.894a14.58,14.58,0,0,0-3.277-3.311,1.61,1.61,0,0,0-2.538.616" transform="translate(-457.423 -215.742)" fill="#da9c72"/>
  <path id="Path_170878" data-name="Path 170878" d="M566.967,390.894a14.58,14.58,0,0,0-3.277-3.311,1.61,1.61,0,0,0-2.538.616" transform="translate(-457.423 -215.742)" fill="none" stroke="#4f2524" stroke-miterlimit="10" stroke-width="0.556"/>
  <path id="Path_170879" data-name="Path 170879" d="M567.2,391.747s-1.718-2.088-1.065-4.19" transform="translate(-460.041 -215.928)" fill="#da9c72"/>
  <path id="Path_170880" data-name="Path 170880" d="M567.2,391.747s-1.718-2.088-1.065-4.19" transform="translate(-460.041 -215.928)" fill="none" stroke="#4f2524" stroke-miterlimit="10" stroke-width="0.556"/>
  <path id="Path_170881" data-name="Path 170881" d="M562.08,361.552a41.232,41.232,0,0,0,2.045,14.675,30.026,30.026,0,0,0,4,7.9l.078.114a3.126,3.126,0,0,1-.88,1.827c-1.393,1.268-3.542,1.283-5.253.929a16.735,16.735,0,0,0,1.8.043c1.7-.041,3.795-.8,3.984-2.735a26.491,26.491,0,0,1-3.055-5.137,34.37,34.37,0,0,1-2.717-17.616" transform="translate(-457.806 -201.851)" fill="#543c31"/>
  <path id="Path_170882" data-name="Path 170882" d="M523.95,338.529s14.854-6.656,22.777,7.291c9.674,17.131-.625,46.031-8.823,45.837-9.623-1.2-30.374-22.946-22.829-43.528,2.2-6.884,8.874-9.6,8.874-9.6" transform="translate(-431.617 -188.535)" fill="#da9c72"/>
  <path id="Path_170883" data-name="Path 170883" d="M585.582,375.467s1.163-6.187,4.164-2.382-.142,15.369-3.992,13.813c-.212-9.593-.173-11.43-.173-11.43" transform="translate(-470.61 -207.423)" fill="#e79e9c"/>
  <path id="Path_170884" data-name="Path 170884" d="M585.582,375.467s1.163-6.187,4.164-2.382-.142,15.369-3.992,13.813C585.543,377.3,585.582,375.467,585.582,375.467Z" transform="translate(-470.61 -207.423)" fill="none" stroke="#4f2524" stroke-miterlimit="10" stroke-width="0.505"/>
  <path id="Path_170885" data-name="Path 170885" d="M540.951,344.387c.434-1.657,2.546-2.932.6-5.13,0,0,2.326-2.12.048-3.756-.638-.133,3.861-3.1-1.356-6.306,1.582-3.557-1.776-4.6-2.75-4.866.183-.465-.625-5.014-5.253-3.439-1.764-5.733-7.543-5.319-10.187-3.462a5.14,5.14,0,0,0-7.745,1.384,3.926,3.926,0,0,0-5.715,2.935c-.98-.194-5.88.218-5.242,4.589-1.151-.274-5.254,1.389-3.413,5.157a2.888,2.888,0,0,0-.742,5.326c-1.561.829-3.138,5.3.486,6.885,0,0-2.934,3.778,1.091,5.659-.668,3.989,4.149,5.125,5.016,5.076s35.159-10.05,35.159-10.05" transform="translate(-422.971 -177.275)" fill="#2f2e40"/>
  <path id="Path_170886" data-name="Path 170886" d="M540.951,344.387c.434-1.657,2.546-2.932.6-5.13,0,0,2.326-2.12.048-3.756-.638-.133,3.861-3.1-1.356-6.306,1.582-3.557-1.776-4.6-2.75-4.866.183-.465-.625-5.014-5.253-3.439-1.764-5.733-7.543-5.319-10.187-3.462a5.14,5.14,0,0,0-7.745,1.384,3.926,3.926,0,0,0-5.715,2.935c-.98-.194-5.88.218-5.242,4.589-1.151-.274-5.254,1.389-3.413,5.157a2.888,2.888,0,0,0-.742,5.326c-1.561.829-3.138,5.3.486,6.885,0,0-2.934,3.778,1.091,5.659-.668,3.989,4.149,5.125,5.016,5.076S540.951,344.387,540.951,344.387Z" transform="translate(-422.971 -177.275)" fill="none" stroke="#4f2524" stroke-miterlimit="10" stroke-width="0.561"/>
  <path id="Path_170887" data-name="Path 170887" d="M523.866,338.993s14.854-6.656,22.777,7.291c9.674,17.131-.625,46.031-8.823,45.837-9.623-1.2-30.374-22.946-22.828-43.528,2.2-6.884,8.874-9.6,8.874-9.6" transform="translate(-431.572 -188.786)" fill="#ffb7b8"/>
  <path id="Path_170888" data-name="Path 170888" d="M523.866,338.993s14.854-6.656,22.777,7.291c9.674,17.131-.625,46.031-8.823,45.837-9.623-1.2-30.374-22.946-22.828-43.528C517.2,341.709,523.866,338.993,523.866,338.993Z" transform="translate(-431.572 -188.786)" fill="none" stroke="#4f2524" stroke-miterlimit="10" stroke-width="0.505"/>
  <path id="Path_170889" data-name="Path 170889" d="M560.333,338.767s10.2,9.232,8.226,15.828.932,7.835.932,7.835,3.343,2.955.775,12.6S564.617,391.7,559.031,391.3c-4.12-.685,2.091,1.812,3.693,1.343s5.667-3.666,6.27-6.473c0,0,6.968-11.839,5.256-25.719-1.381-13.917-7.206-17.277-6.914-17.694s-5.822-4.134-7-3.985" transform="translate(-455.497 -189.521)" fill="#e79e9c"/>
  <path id="Path_170890" data-name="Path 170890" d="M564.457,360.592c.424,8.332,1.64,15.911,6.371,22.593.423,4.071-4.492,3.626-4.739,3.6a10.985,10.985,0,0,1-1.61-.38c-.237-.247,2.847.543,4.5-.954,1.369-1.664,1.511-1.212-.951-4.6-2.268-3.117-3.81-11.622-3.876-13.405-.068-1.843.019-6.922.308-6.857" transform="translate(-459.033 -201.331)" fill="#e79e9c"/>
  <path id="Path_170891" data-name="Path 170891" d="M564.113,361.24a37.316,37.316,0,0,0,2.937,17.523,27.224,27.224,0,0,0,2.987,5.155l.035.047a2.932,2.932,0,0,1-.8,1.7c-1.331,1.26-3.476,1.295-5.133,1.015a8.683,8.683,0,0,0,3.519-.23,3,3,0,0,0,2.257-2.441,27.381,27.381,0,0,1-3.055-5.16,34.822,34.822,0,0,1-2.748-17.609" transform="translate(-458.923 -201.682)" fill="#4f2524"/>
  <path id="Path_170892" data-name="Path 170892" d="M531.93,384.615a4.624,4.624,0,0,0,5.61,3.416,4.7,4.7,0,0,0,3.311-5.722,4.625,4.625,0,0,0-5.61-3.417,4.7,4.7,0,0,0-3.311,5.723" transform="translate(-441.533 -211.158)" fill="#fff"/>
  <path id="Path_170893" data-name="Path 170893" d="M531.93,384.615a4.624,4.624,0,0,0,5.61,3.416,4.7,4.7,0,0,0,3.311-5.722,4.625,4.625,0,0,0-5.61-3.417A4.7,4.7,0,0,0,531.93,384.615Z" transform="translate(-441.533 -211.158)" fill="none" stroke="#4f2524" stroke-linecap="round" stroke-miterlimit="10" stroke-width="0.229"/>
  <path id="Path_170894" data-name="Path 170894" d="M540.357,384.086a2.616,2.616,0,0,0,2.717,2.532,2.653,2.653,0,0,0,2.492-2.783,2.616,2.616,0,0,0-2.717-2.532,2.652,2.652,0,0,0-2.492,2.783" transform="translate(-446.171 -212.538)" fill="#642e2a"/>
  <path id="Path_170895" data-name="Path 170895" d="M540.357,384.086a2.616,2.616,0,0,0,2.717,2.532,2.653,2.653,0,0,0,2.492-2.783,2.616,2.616,0,0,0-2.717-2.532A2.652,2.652,0,0,0,540.357,384.086Z" transform="translate(-446.171 -212.538)" fill="none" stroke="#4f2524" stroke-miterlimit="10" stroke-width="0.478"/>
  <path id="Path_170896" data-name="Path 170896" d="M542.888,383.466a.619.619,0,0,0,.735.513.684.684,0,0,0,.419-.835.619.619,0,0,0-.735-.514.685.685,0,0,0-.418.835" transform="translate(-447.53 -213.246)" fill="#fff"/>
  <path id="Path_170897" data-name="Path 170897" d="M542.888,383.466a.619.619,0,0,0,.735.513.684.684,0,0,0,.419-.835.619.619,0,0,0-.735-.514A.685.685,0,0,0,542.888,383.466Z" transform="translate(-447.53 -213.246)" fill="none" stroke="#4f2524" stroke-miterlimit="10" stroke-width="0.478"/>
  <path id="Path_170898" data-name="Path 170898" d="M523.866,338.993s14.854-6.656,22.777,7.291c9.674,17.131-.625,46.031-8.823,45.837-9.623-1.2-30.374-22.946-22.828-43.528C517.2,341.709,523.866,338.993,523.866,338.993Z" transform="translate(-431.572 -188.786)" fill="none" stroke="#4f2524" stroke-miterlimit="10" stroke-width="0.505"/>
  <path id="Path_170899" data-name="Path 170899" d="M567.655,355.71c-.476-.5.087-1.642,1.905-1.682a6.583,6.583,0,0,1,4.77,2.271,4.711,4.711,0,0,1,1.181,2.463c-.126.167-.112-1.007-3.254-2.527-1.8-.773-4.126-.025-4.6-.525" transform="translate(-460.854 -197.756)" fill="#582523"/>
  <path id="Path_170900" data-name="Path 170900" d="M535.307,355.142c.341-.886-.852-2.1-3.045-1.262-2.731.971-4.086,4.18-4.386,5.276a7.747,7.747,0,0,0-.352,4.293c.456.534-.153-2.073,2.912-5.593,1.8-1.888,4.529-1.829,4.871-2.715" transform="translate(-439.131 -197.529)" fill="#582523"/>
  <path id="Path_170901" data-name="Path 170901" d="M560.288,422.228a6.655,6.655,0,0,1-5.838.759,9.562,9.562,0,0,1-5.2-3.542c-.006-.056,2.264,5.915,6.277,6.97s2.216-3.128,2.216-3.128" transform="translate(-450.981 -233.212)" fill="#fff"/>
  <path id="Path_170902" data-name="Path 170902" d="M560.14,422.051a8.64,8.64,0,0,1-1.643.791,7.33,7.33,0,0,1-4.4-.123,10.341,10.341,0,0,1-3.673-2.075,4.427,4.427,0,0,1-1.2-1.323l-.107.107c-.093-.027-.014.022.016.12a3.842,3.842,0,0,0,.194.437q.333.724.726,1.419a13.678,13.678,0,0,0,2.627,3.43,5.959,5.959,0,0,0,3.892,1.738,1.432,1.432,0,0,0,1.544-1.426,4.581,4.581,0,0,0-.408-2c-.044-.1-.193-.014-.15.088a5.122,5.122,0,0,1,.384,1.6,1.655,1.655,0,0,1-.282,1.149,1.672,1.672,0,0,1-1.541.387c-2.865-.368-4.84-3.04-6.111-5.405-.22-.411-.427-.829-.616-1.254-.04-.09-.114-.413-.229-.447a.087.087,0,0,0-.107.107,4.135,4.135,0,0,0,1.164,1.324,10.507,10.507,0,0,0,3.659,2.137,7.626,7.626,0,0,0,4.491.231,8.512,8.512,0,0,0,1.856-.858c.1-.054.011-.2-.088-.15" transform="translate(-450.877 -233.11)" fill="#4f2524"/>
  <path id="Path_170903" data-name="Path 170903" d="M549.383,418.28c-.747.357-1.56.633-1.919,1.438.025-.93,1.1-1.425,1.919-1.438" transform="translate(-450.017 -232.576)" fill="#4f2524"/>
  <path id="Path_170904" data-name="Path 170904" d="M569.309,379.529a4.075,4.075,0,0,0,4.944,3.011,4.138,4.138,0,0,0,2.917-5.042,4.074,4.074,0,0,0-4.943-3.011,4.139,4.139,0,0,0-2.917,5.042" transform="translate(-461.738 -208.779)" fill="#fff"/>
  <path id="Path_170905" data-name="Path 170905" d="M569.309,379.529a4.075,4.075,0,0,0,4.944,3.011,4.138,4.138,0,0,0,2.917-5.042,4.074,4.074,0,0,0-4.943-3.011A4.139,4.139,0,0,0,569.309,379.529Z" transform="translate(-461.738 -208.779)" fill="none" stroke="#4f2524" stroke-linecap="round" stroke-miterlimit="10" stroke-width="0.202"/>
  <path id="Path_170906" data-name="Path 170906" d="M575.992,378.32a2.3,2.3,0,0,0,2.394,2.231,2.337,2.337,0,0,0,2.2-2.452,2.306,2.306,0,0,0-2.394-2.232,2.338,2.338,0,0,0-2.2,2.452" transform="translate(-465.452 -209.592)" fill="#642e2a"/>
  <path id="Path_170907" data-name="Path 170907" d="M575.992,378.32a2.3,2.3,0,0,0,2.394,2.231,2.337,2.337,0,0,0,2.2-2.452,2.306,2.306,0,0,0-2.394-2.232A2.338,2.338,0,0,0,575.992,378.32Z" transform="translate(-465.452 -209.592)" fill="none" stroke="#4f2524" stroke-miterlimit="10" stroke-width="0.421"/>
  <path id="Path_170908" data-name="Path 170908" d="M578.223,377.774a.545.545,0,0,0,.648.452.6.6,0,0,0,.369-.736.545.545,0,0,0-.648-.452.6.6,0,0,0-.369.736" transform="translate(-466.649 -210.216)" fill="#fff"/>
  <path id="Path_170909" data-name="Path 170909" d="M578.223,377.774a.545.545,0,0,0,.648.452.6.6,0,0,0,.369-.736.545.545,0,0,0-.648-.452A.6.6,0,0,0,578.223,377.774Z" transform="translate(-466.649 -210.216)" fill="none" stroke="#4f2524" stroke-miterlimit="10" stroke-width="0.421"/>
  <path id="Path_170910" data-name="Path 170910" d="M535.247,599.063s-19.83,5.921-29.268.7c-15.966-3.7-22.43,38.994-24.337,54.01-2.016,10.482-10.033,54.379-16.338,94,.077,3.174,5.037,3.721,10.619,2.226,12.286-36.133,36.76-108.278,36.76-108.278l-1.266,105.514c0,.091,8.317,2.78,11.087-.263,6.01-38.051,28.794-130.152,12.742-147.911" transform="translate(-405.564 -330.868)" fill="#2f2e40"/>
  <path id="Path_170911" data-name="Path 170911" d="M535.247,599.063s-19.83,5.921-29.268.7c-15.966-3.7-22.43,38.994-24.337,54.01-2.016,10.482-10.033,54.379-16.338,94,.077,3.174,5.037,3.721,10.619,2.226,12.286-36.133,36.76-108.278,36.76-108.278l-1.266,105.514c0,.091,8.317,2.78,11.087-.263C528.516,708.923,551.3,616.822,535.247,599.063Z" transform="translate(-405.564 -330.868)" fill="none" stroke="#4f2524" stroke-miterlimit="10" stroke-width="0.494"/>
  <path id="Path_170912" data-name="Path 170912" d="M565.576,470.337c-1.485-.046-5.67,14.571-23.745,2.3,12.031,25.032,9.721,61.007,9.721,61.007s12.306,2.425,19.927-1.387c4.714-11.454-5.9-61.924-5.9-61.924" transform="translate(-446.943 -260.854)" fill="#fff"/>
  <path id="Path_170913" data-name="Path 170913" d="M565.576,470.337c-1.485-.046-5.67,14.571-23.745,2.3,12.031,25.032,9.721,61.007,9.721,61.007s12.306,2.425,19.927-1.387C576.193,520.807,565.576,470.337,565.576,470.337Z" transform="translate(-446.943 -260.854)" fill="none" stroke="#4f2524" stroke-miterlimit="10" stroke-width="0.494"/>
  <path id="Path_170914" data-name="Path 170914" d="M583.187,460.829l10.954,2.772s8.893,66.021,11.659,71.808c-.444,3.991-8.674,8.581-14.737,7.652-.12-4.987,4.031-29.3-7.876-82.232" transform="translate(-469.314 -255.723)" fill="#fd6584"/>
  <path id="Path_170915" data-name="Path 170915" d="M583.187,460.829l10.954,2.772s8.893,66.021,11.659,71.808c-.444,3.991-8.674,8.581-14.737,7.652C590.943,538.074,595.093,513.757,583.187,460.829Z" transform="translate(-469.314 -255.723)" fill="none" stroke="#4f2524" stroke-miterlimit="10" stroke-width="0.5"/>
  <path id="Path_170916" data-name="Path 170916" d="M526.237,465.427s18.319,44.922,9.174,79.619c-4.932,2.387-17.337-4.119-20.134-7.227,7.629-19.058-4.54-59.34-3.878-62.809s14.838-9.583,14.838-9.583" transform="translate(-430.49 -258.213)" fill="#fd6584"/>
  <path id="Path_170917" data-name="Path 170917" d="M526.237,465.427s18.319,44.922,9.174,79.619c-4.932,2.387-17.337-4.119-20.134-7.227,7.629-19.058-4.54-59.34-3.878-62.809S526.237,465.427,526.237,465.427Z" transform="translate(-430.49 -258.213)" fill="none" stroke="#4f2524" stroke-miterlimit="10" stroke-width="0.5"/>
  <path id="Path_170918" data-name="Path 170918" d="M583.27,460.431l9.84,14.775-1.9,6.1,3.645,5.236-4.046,20.121" transform="translate(-469.36 -255.463)" fill="none" stroke="#4f2524" stroke-miterlimit="10" stroke-width="0.494"/>
  <path id="Path_170919" data-name="Path 170919" d="M542.766,465.427l-.844,13.594,3.173,3.682-1.331,8.8,9.823,17.173" transform="translate(-447.018 -258.168)" fill="none" stroke="#4f2524" stroke-miterlimit="10" stroke-width="0.494"/>
  <path id="Path_170920" data-name="Path 170920" d="M518.913,537.283c7.136-18.952-4.247-59.012-3.628-62.461.469-2.615,8.2-6.74,11.916-8.584-.118-.32-.183-.489-.183-.489s-13.261,6.08-13.88,9.53,10.764,43.509,3.628,62.461c2.6,3.068,14.041,9.459,18.724,7.235-5.376.152-14.321-5.024-16.578-7.691" transform="translate(-431.432 -258.387)" fill="#e25979"/>
  <path id="Path_170921" data-name="Path 170921" d="M575.522,926.773c4.113,1.262,18.5,10.819,17.533,12.28s-24.17-5.315-25.541-5.736-.131-5.44-.131-5.44,7.773,2.535,8.139-1.1" transform="translate(-460.488 -508.179)" fill="#2f2e40"/>
  <path id="Path_170922" data-name="Path 170922" d="M575.522,926.773c4.113,1.262,18.5,10.819,17.533,12.28s-24.17-5.315-25.541-5.736-.131-5.44-.131-5.44S575.156,930.411,575.522,926.773Z" transform="translate(-460.488 -508.179)" fill="none" stroke="#4f2524" stroke-miterlimit="10" stroke-width="1.023"/>
  <path id="Path_170923" data-name="Path 170923" d="M457.4,933.169c-.885.929-6.768,1.524-8.636-.7-1.77,1.857-14.8,15.054-12.755,16.638s22.45-9.612,22.45-9.612-.175-7.254-1.06-6.326" transform="translate(-389.594 -511.261)" fill="#2f2e40"/>
  <path id="Path_170924" data-name="Path 170924" d="M457.4,933.169c-.885.929-6.768,1.524-8.636-.7-1.77,1.857-14.8,15.054-12.755,16.638s22.45-9.612,22.45-9.612S458.282,932.241,457.4,933.169Z" transform="translate(-389.594 -511.261)" fill="none" stroke="#4f2524" stroke-miterlimit="10" stroke-width="1.023"/>
  <path id="Path_170925" data-name="Path 170925" d="M657.186,449.858a11.38,11.38,0,0,1,2.839-5.507c1.606-1.606-.4-4.9-.432-6.122s1.941-2.47,3.82-.019a5.9,5.9,0,0,1,1.2,4.874l11.9-4.7a51.532,51.532,0,0,1-6.6,9.427c-3.92,2.964-8.276,6.754-8.276,6.754Z" transform="translate(-509.343 -242.628)" fill="#ffb7b8"/>
  <path id="Path_170926" data-name="Path 170926" d="M657.186,449.858a11.38,11.38,0,0,1,2.839-5.507c1.606-1.606-.4-4.9-.432-6.122s1.941-2.47,3.82-.019a5.9,5.9,0,0,1,1.2,4.874l11.9-4.7a51.532,51.532,0,0,1-6.6,9.427c-3.92,2.964-8.276,6.754-8.276,6.754Z" transform="translate(-509.343 -242.628)" fill="none" stroke="#4f2524" stroke-miterlimit="10" stroke-width="0.505"/>
  <path id="Path_170927" data-name="Path 170927" d="M514.3,471.255c-3.676.817-6.943,4.493-1.916,11.855,5.592,8.567,40.044,18.165,40.044,18.165l30.958-32.819s-.06-4.553-5.778-4.773c-6.535,5.938-27.369,23.1-27.369,23.1s-29.4-17.159-35.938-15.525" transform="translate(-429.645 -257.216)" fill="#fd6584"/>
  <path id="Path_170928" data-name="Path 170928" d="M514.3,471.255c-3.676.817-6.943,4.493-1.916,11.855,5.592,8.567,40.044,18.165,40.044,18.165l30.958-32.819s-.06-4.553-5.778-4.773c-6.535,5.938-27.369,23.1-27.369,23.1S520.835,469.621,514.3,471.255Z" transform="translate(-429.645 -257.216)" fill="none" stroke="#4f2524" stroke-miterlimit="10" stroke-width="0.5"/>
  <path id="Path_170929" data-name="Path 170929" d="M553.138,501.858s-34.171-9.6-39.717-18.165a14.241,14.241,0,0,1-2.446-5.466c-.37,1.894.206,4.455,2.446,7.76,5.546,8.567,39.717,18.165,39.717,18.165l30.7-32.819a4.257,4.257,0,0,0-.459-1.584Z" transform="translate(-430.219 -260.501)" fill="#e25979"/>
  <path id="Path_170930" data-name="Path 170930" d="M702.27,432.42s-.047-1.359,1.812-3.677c1.4-.482,5.587-2.065,5.587-2.065s1.223-3.514,3.649-5.124,3.424-.612,3.424-.612a1.546,1.546,0,0,1,1,2,63.823,63.823,0,0,0-1.195,6.476l-7.788,5.5c-.908,2.361-7.4-.134-6.487-2.5" transform="translate(-533.684 -233.864)" fill="#ffb7b8"/>
  <path id="Path_170931" data-name="Path 170931" d="M702.27,432.42s-.047-1.359,1.812-3.677c1.4-.482,5.587-2.065,5.587-2.065s1.223-3.514,3.649-5.124,3.424-.612,3.424-.612a1.546,1.546,0,0,1,1,2,63.823,63.823,0,0,0-1.195,6.476l-7.788,5.5C707.849,437.276,701.361,434.781,702.27,432.42Z" transform="translate(-533.684 -233.864)" fill="none" stroke="#4f2524" stroke-miterlimit="10" stroke-width="0.549"/>
  <path id="Path_170932" data-name="Path 170932" d="M726.435,421.306c-.228-.026-1.6,5.94-2.063,7.776" transform="translate(-545.688 -234.221)" fill="#ffb7b8"/>
  <path id="Path_170933" data-name="Path 170933" d="M726.435,421.306c-.228-.026-1.6,5.94-2.063,7.776" transform="translate(-545.688 -234.221)" fill="none" stroke="#4f2524" stroke-miterlimit="10" stroke-width="0.549"/>
  <line id="Line_88850" data-name="Line 88850" x1="1.334" y2="7.532" transform="translate(181.306 186.862)" fill="#ffb7b8"/>
  <line id="Line_88851" data-name="Line 88851" x1="1.334" y2="7.532" transform="translate(181.306 186.862)" fill="none" stroke="#4f2524" stroke-miterlimit="10" stroke-width="0.549"/>
  <path id="Path_170934" data-name="Path 170934" d="M712.885,433.8l-.625,1.573a8.675,8.675,0,0,0-4.132,4.114" transform="translate(-536.901 -240.991)" fill="#ffb7b8"/>
  <path id="Path_170935" data-name="Path 170935" d="M712.885,433.8l-.625,1.573a8.675,8.675,0,0,0-4.132,4.114" transform="translate(-536.901 -240.991)" fill="none" stroke="#4f2524" stroke-miterlimit="10" stroke-width="0.549"/>
  <path id="Path_170936" data-name="Path 170936" d="M857.505,587.591v42.965a2.841,2.841,0,0,1-2.841,2.841H822.713a2.841,2.841,0,0,1-2.841-2.841V587.591a2.841,2.841,0,0,1,2.841-2.841h31.951a2.841,2.841,0,0,1,2.841,2.841" transform="translate(-597.344 -322.851)" fill="#fff"/>
  <path id="Rectangle_151089" data-name="Rectangle 151089" d="M6.191,0H31.442a6.191,6.191,0,0,1,6.191,6.191V42.458a6.19,6.19,0,0,1-6.19,6.19H6.19A6.19,6.19,0,0,1,0,42.458V6.191A6.191,6.191,0,0,1,6.191,0Z" transform="translate(222.528 261.898)" fill="none" stroke="#b3b3b3" stroke-miterlimit="10" stroke-width="2"/>
  <path id="Path_170937" data-name="Path 170937" d="M838.143,608.749v27.87H859.35V613.774l-7.831-5.024Z" transform="translate(-607.23 -335.831)" fill="none" stroke="#a061f6" stroke-miterlimit="10" stroke-width="2.01"/>
  <line id="Line_88852" data-name="Line 88852" x2="10.598" transform="translate(236.341 282.89)" fill="none" stroke="#a061f6" stroke-miterlimit="10" stroke-width="2.01"/>
  <line id="Line_88853" data-name="Line 88853" x2="10.598" transform="translate(236.341 287.031)" fill="none" stroke="#a061f6" stroke-miterlimit="10" stroke-width="2.01"/>
  <line id="Line_88854" data-name="Line 88854" x2="10.598" transform="translate(236.341 291.176)" fill="none" stroke="#a061f6" stroke-miterlimit="10" stroke-width="2.01"/>
  <g id="Group_191579" data-name="Group 191579" transform="translate(249.699 6.832)">
    <path id="Path_170939" data-name="Path 170939" d="M62.391,38.915,15.459,55.041a3.179,3.179,0,0,1-4.041-1.973L.174,20.341A3.18,3.18,0,0,1,2.147,16.3L49.079.173A3.18,3.18,0,0,1,53.12,2.148L64.365,34.875a3.179,3.179,0,0,1-1.974,4.04" transform="translate(18.885 0) rotate(20)" fill="#fff" stroke="#c7c7c7" stroke-width="1"/>
    <g id="Group_191578" data-name="Group 191578" transform="translate(23 25)">
      <path id="Path_170518" data-name="Path 170518" d="M473.378,509.395h-27.01a3.053,3.053,0,0,1-2.894-3.185V489.225a3.053,3.053,0,0,1,2.894-3.185h27.01a3.053,3.053,0,0,1,2.894,3.185V506.21A3.053,3.053,0,0,1,473.378,509.395Zm-27.01-21.231a1.018,1.018,0,0,0-.965,1.061V506.21a1.018,1.018,0,0,0,.965,1.062h27.01a1.017,1.017,0,0,0,.965-1.061V489.225a1.018,1.018,0,0,0-.965-1.061Z" transform="translate(-443.474 -486.04)" fill="#a061f7"/>
      <path id="Path_170519" data-name="Path 170519" d="M469.254,508.933H449.841a1.9,1.9,0,0,1-1.671-1.061,2.309,2.309,0,0,1,0-2.123l5.847-11.147a1.846,1.846,0,0,1,3.342,0l3.776,7.2,2.188-4.171a1.846,1.846,0,0,1,3.342,0l4.259,8.118a2.309,2.309,0,0,1,0,2.123A1.9,1.9,0,0,1,469.254,508.933Zm0-2.123h0l-4.259-8.119-3.023,5.763a.952.952,0,0,1-.836.531h0a.952.952,0,0,1-.836-.531l-4.612-8.791-5.848,11.147Z" transform="translate(-443.631 -485.578)" fill="#a061f7"/>
      <ellipse id="Ellipse_8337" data-name="Ellipse 8337" cx="1.929" cy="2.123" rx="1.929" ry="2.123" transform="translate(25.081 4.246)" fill="#a061f7"/>
    </g>
  </g>
</svg>
