<svg xmlns="http://www.w3.org/2000/svg" width="130" height="142" viewBox="0 0 130 142">
  <g id="Group_190465" data-name="Group 190465" transform="translate(-8.663 -3.592)">
    <g id="Group_190464" data-name="Group 190464" transform="translate(8.662 3.592)">
      <path id="Path_170131" data-name="Path 170131" d="M16.185,80.43a9.573,9.573,0,0,0-1.7,4.117c-.066.518.367.968.786.638a57.452,57.452,0,0,0,3.576-4.935l.367.24a14.7,14.7,0,0,0-1.16,5.685c0,.27.1.5.382.5a.777.777,0,0,0,.543-.345,2.519,2.519,0,0,0,.419-.75c.521-1.147,1.572-3.877,1.777-4.447a3.8,3.8,0,0,0,2.284-.607,2.66,2.66,0,0,0,2.512,1.755c.14,0,.389,0,.433-.285.066-.368-.808-1.56-1.594-2.542a3.661,3.661,0,0,0,.734-1.147c1.013-.4,1.586-.915,1.711-1.5.411-2.048-4.347-5.857-6.668-4.5a10.064,10.064,0,0,0-2.57,3,5.065,5.065,0,0,0-.36,1.035,1.687,1.687,0,0,0-.962.435,29.139,29.139,0,0,0-3.062,2.865c-.58.645-1,1.635-.154,1.755a1.256,1.256,0,0,0,.9-.36c.734-.51,2.82-2.3,3.268-2.685v.09a16.191,16.191,0,0,0-1.469,2Zm-2.717.345a2.081,2.081,0,0,1,.58-.885c1.035-1.125,2.387-2.25,2.761-2.6a1.825,1.825,0,0,1,.734-.48,4.258,4.258,0,0,0,0,1.1c-.228.195-.455.42-.683.623a31.982,31.982,0,0,1-3.128,2.385c-.132.083-.308.083-.242-.143Zm10.156-1.89c.125-.09.316.143.4.232a13.112,13.112,0,0,1,1.946,2.745,1.237,1.237,0,0,1-.521,0A2.735,2.735,0,0,1,23.69,80.3a1.982,1.982,0,0,1-.22-.833.9.9,0,0,1,.154-.585Zm-3.8-5.325a8.87,8.87,0,0,1,5.287,4.673,2.129,2.129,0,0,1-.558.9c-.316-.375-.734-.833-1.109-.57s-.345,1.125-.14,1.658a3.616,3.616,0,0,1-2,.592,6.059,6.059,0,0,0,.162-.825.677.677,0,0,0-.734-.825,1.413,1.413,0,0,0-1.359.99l-.3-.2a1.021,1.021,0,0,0,.051-1.313,1.2,1.2,0,0,0-1.1-.375,4.931,4.931,0,0,1,1.807-4.7Zm-1.4,12.6a12.671,12.671,0,0,1,.323-2.692c.162-.75.375-1.312.543-1.868.213-.705.573-1.89,1.182-2a1.065,1.065,0,0,1,.228,0c.426,0,.419.2.3.622-.286,1.05-2.431,7.05-2.578,5.94Zm-2.467-4.5c.389-.705.859-1.372,1.307-2.025.242-.345.573-.93.947-.975s.852.33.734.7a42.239,42.239,0,0,1-3.775,5.393c-.2.225-.264.217-.25-.045a10.011,10.011,0,0,1,1.035-3.052ZM54.526,65.925a3.4,3.4,0,0,0-1.564-1.613,2.635,2.635,0,0,0-1.542-.12c-13.057,2.3-20.6,4.155-20.783,4.23a1.91,1.91,0,0,0-.991,1.395,6.472,6.472,0,0,0,1.2,5.79,1.732,1.732,0,0,0,1,.8c.345,0,4.289-1.358,6.764-1.673,1.623-.21,14.129-3.24,14.621-3.4,1.381-.458,2.159-1.245,1.748-3.75a5.481,5.481,0,0,0-.455-1.665ZM30.38,74.145a6.026,6.026,0,0,1-.345-4.05c.132-.48.345-1.05.8-1.23a1.213,1.213,0,0,1,1.131.21,3.783,3.783,0,0,1,1.109,2.385c.492,2.835-.176,3.9-.624,4.283a.769.769,0,0,1-.646.232c-.551-.187-1.182-1.222-1.425-1.83Zm11.339-7.7,5.023-.93c2.871,1.875,1.975,5.663,1.711,6.563l-5.141,1.208a6.943,6.943,0,0,0-1.594-6.84ZM33.486,71.46c-.213-1.192-.573-2.445-1.55-2.933,1.469-.353,2.937-.683,4.267-.975a9.035,9.035,0,0,1,1.307,6.96c-1.072.24-3.452.893-4.325,1.147.308-.548.749-1.807.3-4.2ZM36.63,67.5c1.469-.315,2.982-.622,4.612-.93A6.76,6.76,0,0,1,42.864,73.4L37.929,74.43a9.157,9.157,0,0,0-1.3-6.93ZM48.893,72c.352-1.387,1.013-4.5-1.616-6.562,1.05-.21,4.01-.81,4.693-.833a1.975,1.975,0,0,1,1.469.593,5.137,5.137,0,0,1,1.226,3.555c0,1.425-.477,1.957-2.2,2.377Zm88.895,30.255a2.969,2.969,0,0,0-1.667-.675,5.468,5.468,0,0,1-3.378-1.268c1.05-1.268.676-1.935.455-2.175a1.07,1.07,0,0,0-1.41-.09c-.646.525-.286,1.658.242,2.25a2.39,2.39,0,0,1-3.253-.982.174.174,0,0,0-.242-.06.182.182,0,0,0-.059.248,2.818,2.818,0,0,0,1.707,1.41,2.754,2.754,0,0,0,2.178-.277c1.975,1.9,4.465.75,5.544,2.438a3.921,3.921,0,0,1,.286,2.768.113.113,0,0,0,.067.121.109.109,0,0,0,.131-.038,3.5,3.5,0,0,0-.6-3.668Zm-5.1-4c.33.173.507,1.02-.264,1.755-.382-.412-.734-.982-.4-1.5a.531.531,0,0,1,.668-.255ZM45.8,126a2.167,2.167,0,0,1-.94-.255,7.44,7.44,0,0,0-.455-1.132,2.74,2.74,0,0,0-1.608-1.388,4.517,4.517,0,0,0-.059-1.072,5.539,5.539,0,0,0-2.056-.863.243.243,0,0,0-.25.188c-.073.39-.206,1.095-.294,1.815-1.315-.308-2.791.615-3.231.788-.14-.158-.734-.915-.837-1.02s-.411-.143-.587.195c0,0-.859,1.7-.859,1.74v1.688a.128.128,0,0,0,.066.105l1.116.442c0,.322.037,1.027.037,1.237-.162.105-.639.345-.734.585l-.316.45a.114.114,0,0,0,0,.143c.2.188,1.344,1.087,1.667,1.29a.1.1,0,0,0,.14,0l.815-.878,1.858.368a13.391,13.391,0,0,1,1.057,1.5c.044.09,0,.06,1.836.06a.111.111,0,0,0,.11-.1,5.525,5.525,0,0,1,.587-1.163.138.138,0,0,0,0-.1l-.1-.54,1.931-1.418.889.12a.11.11,0,0,0,.117-.082l.492-1.718a.13.13,0,0,0,0-.075c-.33-.907-.294-.907-.4-.907Zm-5.508-2.16c.1.045.154-.038.184-.143s.154-.645.382-1.86a5.555,5.555,0,0,1,1.469.577v1.035a.216.216,0,0,0,.176.217c1.579.338,1.961,2.423,2.137,2.572a2.487,2.487,0,0,0,.734.285l-.088,1.342-.991-.3a.087.087,0,0,0-.1,0c-2.2,1.92-2.086,1.778-2.071,1.86l.088.848H40.228l-.044-.75a.112.112,0,0,0-.1-.1c-3.121-.375-2.937-.382-2.937-.308l-.507.69-.94-.682a1.979,1.979,0,0,1,.36-.21.373.373,0,0,0,.272-.345V126.09c0-.082.044,0-1.146-.952a11.1,11.1,0,0,1,.786-1.59c.279.338.793,1.043,1.065,1.043s2.2-1.237,3.268-.75Z" transform="translate(-8.662 -4.4)" fill="#7e2eef"/>
      <path id="Path_170132" data-name="Path 170132" d="M40.365,128.557a2.767,2.767,0,0,0,2.115-.292,2.145,2.145,0,0,0,.577-2.723,1.927,1.927,0,0,0-.495-.518,4.125,4.125,0,0,0-2.43-.51,1.905,1.905,0,0,0-1.553.832,2.438,2.438,0,0,0-.075,2.25A3,3,0,0,0,40.365,128.557Zm-1.5-1.965c.255-.39.915-.4,1.38-.368,1.845.165,2.213.637,2.25.908a.885.885,0,0,1-.427.795,2.483,2.483,0,0,1-1.77.158,2.34,2.34,0,0,1-1.5-.75.8.8,0,0,1,.105-.743Zm-10.785-4.23a1.98,1.98,0,0,0-1.628-.473,2.19,2.19,0,0,0-1.447.84,2.25,2.25,0,0,0-.2,1.5,3.232,3.232,0,0,0,1.125,2.333,1.612,1.612,0,0,0,1.4.405c.353-.09,1.5-.615,1.275-3.24a1.868,1.868,0,0,0-.532-1.365Zm-.33,3.548c-.33.15-1.095-.232-1.305-1.455a2.31,2.31,0,0,1,.465-2.018c.3-.292.75,0,.96.33.63.795.5,2.88-.12,3.143Zm22.913-10.027a3.668,3.668,0,0,0-4.245.322,2.842,2.842,0,0,0-.84,2.872A3.533,3.533,0,0,0,49.9,121.14a2.58,2.58,0,0,0,1.71-1.14c.285-.533.772-2.963-.953-4.118Zm.465,3a3.232,3.232,0,0,1-2.812.75c-.652-.143-2.01-.825-2.182-1.732-.1-.533.225-1.072.975-1.583,1.252-.862,3.412-.622,4.072.8a1.552,1.552,0,0,1-.053,1.732Z" transform="translate(-8.662 -4.4)" fill="#7e2eef"/>
      <path id="Path_170133" data-name="Path 170133" d="M49.058,116.016c-1.08-.231-1.695.328-1.725.9s.75,1.029,1.455,1.029c1.462,0,1.8-1.588.27-1.932Zm.36,1.387c-.45.351-1.657.075-1.68-.41,0-.291.263-.612.81-.612.353,0,.982.149,1.065.5a.625.625,0,0,1-.2.522Zm-2.13-33.112a.209.209,0,0,0-.112-.4c-2.55.746-3,4.132-1.073,4.847.248,1.753,2.415,2.573,4.29,1.894.93,1.633,3.96,1.745,3.99-.507a.173.173,0,0,0-.345,0,1.182,1.182,0,0,1-.39.932,1.941,1.941,0,0,1-2.858-.612c1.073-.559,1.125-1.492.75-1.842a.85.85,0,0,0-1.267.358,1.566,1.566,0,0,0-.09,1.253c-1.342.477-3.225.075-3.607-1.387a1.854,1.854,0,0,0,1.875-1.1c.45-1.156-.915-1.492-1.748-.746a2.017,2.017,0,0,0-.63,1.253c-1.365-.664-.862-3.3,1.215-3.953Zm-.75,4.124a1.373,1.373,0,0,1,1.388-1.4c.825.574-.63,1.6-1.388,1.424Zm4.65.433c.09,0,.158.149.195.358a1.277,1.277,0,0,1-.75.88c-.307-.41.225-1.283.555-1.216ZM72.3,106.179c-.42-.4-1.553-1-4.357-.492a1.5,1.5,0,0,0-1.283.977,13.853,13.853,0,0,0,.09,2.685c.255,1.216,1.755,1.439,2.82,1.439a3.469,3.469,0,0,0,2.805-.955,1.349,1.349,0,0,0,.292-.477c0-.164.045-1.365,0-2.357a.982.982,0,0,0-.367-.82Zm-.217.425a.512.512,0,0,1,.1.544,1.5,1.5,0,0,1-.825.649,5.078,5.078,0,0,1-3.855-.172,1.175,1.175,0,0,1-.42-.947q.1-.447.945-.6C70.388,105.62,71.663,106.052,72.083,106.6Zm-3.143,3.677c-.69-.067-1.56-.283-1.755-.947a9.4,9.4,0,0,1-.1-1.492,3.011,3.011,0,0,0,2.167.671c1.98-.045,2.685-.44,3-.746a9,9,0,0,1-.067,1.492c-.435.94-1.958,1.134-3.248,1.022ZM56.925,74.8c-.42-.4-1.553-1-4.365-.492a1.5,1.5,0,0,0-1.275.992,13.779,13.779,0,0,0,.052,2.67c.248,1.223,1.748,1.447,2.82,1.447A3.492,3.492,0,0,0,57,78.459c.4-.485.322-.328.322-2.834a1,1,0,0,0-.4-.828Zm-.218.425a.52.52,0,0,1,.1.552,1.5,1.5,0,0,1-.825.649,5.078,5.078,0,0,1-3.855-.172,1.2,1.2,0,0,1-.42-.947c.067-.3.382-.5.952-.612C55.012,74.246,56.295,74.671,56.708,75.223Zm-3.143,3.684c-.69-.067-1.56-.283-1.755-.947a9.456,9.456,0,0,1-.1-1.492,3.012,3.012,0,0,0,2.167.664c1.98,0,2.685-.433,3-.746a8.9,8.9,0,0,1-.067,1.492c-.435.947-1.965,1.148-3.248,1.029Zm22.6,35.961c-.45.343-.615.791-1.3.708a1.219,1.219,0,0,0-.375-1.559,1.394,1.394,0,0,0-1.433.037c-.637.746.165,1.447,1.08,1.782a4.1,4.1,0,0,1-3.937.887,2.273,2.273,0,0,0-.413-2.744c-1.335-.977-3.082,1.685-.195,2.946a2.559,2.559,0,0,1-3.75.567.173.173,0,0,0-.239.008.171.171,0,0,0,0,.238,2.867,2.867,0,0,0,4.44-.656,4.473,4.473,0,0,0,4.605-1.1,1.591,1.591,0,0,0,1.05-.1c.187-.1,1.252-1.424,2.25-.649a.147.147,0,0,0,.206-.011.145.145,0,0,0-.011-.205,1.461,1.461,0,0,0-1.98-.149Zm-2.9-.321c0-.224.285-.268.51-.268a.691.691,0,0,1,.705.336.846.846,0,0,1-.045.858,3.32,3.32,0,0,1-1.027-.567.535.535,0,0,1-.143-.343Zm-4.762.2c.848-1.492,1.808.283,1.5,1.238a2.7,2.7,0,0,1-.21.6c-.87-.358-1.552-1.089-1.29-1.82ZM64.5,22.967c1.1.313.09,2.424.278,3.729a2.352,2.352,0,0,0,1.462,1.827c1.373.708,3,0,4.3.529.63.425.51,1.238.375,2.178-.36,2.409.052,2.8,1.725,3.908a4.274,4.274,0,0,1,2.175,2.4,3.148,3.148,0,0,1-.51,2.237c-.18.2.12.485.3.283A8.619,8.619,0,0,0,76.71,36.2c.1-.887-.165-.634-.308-1.492a4.387,4.387,0,0,1,.705-2.521c.285-.962-.15-1.454-.75-2.237-.75-.984-1.238-2.424-.427-3.266.75-.612,2.595-1.439,1.7-2.782-.5-.567-1.41-.425-1.5-1.454a2.433,2.433,0,0,1,.923-1.917c1.613-1.424,4.5-1.864,5.558-4.258,3.63-7.122-1.86-12.626-10.042-12.678-4.658-.007-10.838,1.946-13.32,5.772C56.325,14.19,60,21.744,64.5,22.967Zm18.555-9.113a10.765,10.765,0,0,1-1.125,2.685c-1.5,2.521-6.3,2.5-6.307,5.966a1.591,1.591,0,0,0,.4.947,3.341,3.341,0,0,0,.938.574.64.64,0,0,1,.292.955,2.411,2.411,0,0,1-.967.82c-1.567.746-1.582,2.677-.607,4.072,1.32,1.447,1.05,2.021.645,2.9-.622,1.327-.548,1.611-.277,2.319a1.966,1.966,0,0,1,.18,1.156,7.124,7.124,0,0,1-1,2.275,3.2,3.2,0,0,0-.84-2.64,9.568,9.568,0,0,0-1.718-1.253c-2-1.052-1.425-2.424-1.147-4.117A1.979,1.979,0,0,0,70.7,28.6a2.593,2.593,0,0,0-1.305-.239c-1.38,0-3.067.149-3.87-1-1.058-2.125,1.5-4.534-1.9-5.22-2.64-1.29-4.6-5.034-4.913-7.771C57.517,4.256,74.91,1.646,80.662,6.605a6.817,6.817,0,0,1,2.415,7.249Zm35.077,106.83c-.053-.075.2-.052-3.54-.052-.135,0,0-.1-1.148,2.826a20.365,20.365,0,0,1-3.893.067c-14.782-.932-14.34-3.2-15.292-11.425a25.533,25.533,0,0,0-.48-3.319c-.975-3.923-5.7-4.982-8.04-1.238-1.5,2.372-1.14,5.623-.923,8.464a26.153,26.153,0,0,0,1.83,8.554c2.625,5.914,6.75,7.368,13.005,7.868a52.042,52.042,0,0,0,9.593-.06c.157,0,2.565-.06,3.487-.075.188,0-.075.067,4.95-10.523.667,10.217.75,10.441.465,11.477-.195.671-3.562,8.382-4.605,10.679-.172-2.185-.533-8.763-.54-10.6a.111.111,0,0,0-.036-.082.113.113,0,0,0-.084-.03l-3.225.283a.112.112,0,0,0-.105.112c0,2,.592,10.016.8,11.88a.112.112,0,0,0,.112.1l3.1-.283a.112.112,0,0,0,.1-.089c.09-.291,4.5-10.612,4.77-11.261a5.817,5.817,0,0,0,.375-2.282c-.015-.306-.645-10.933-.675-10.993ZM113.25,124c-.458,1.126-2.5,5.966-3.353,7.808h-.112a12.374,12.374,0,0,1,.66-7.734c.555.03,2.16-.022,2.805-.075Zm-3.87,7.86c-1.763.164-3.57.246-5.393.239a10.586,10.586,0,0,1,1.725-8.375c.75.075,3.307.283,4.32.343a12.463,12.463,0,0,0-.682,7.793ZM95.13,119.118a6.838,6.838,0,0,0,3.112,3.02,9.85,9.85,0,0,0-2.52,9.225c-4.747-1.074-6.367-3.169-7.7-5.407a14.138,14.138,0,0,1,7.057-6.839Zm-1.418-7.689c0,.254.308,2.67.353,3.073-3.982-1.007-7.68,2.148-8.543,3.087-.09-.88-.293-3.841-.323-4.78a10.089,10.089,0,0,1,8.46-1.38Zm.413,3.565a31.818,31.818,0,0,0,.855,3.729,14.157,14.157,0,0,0-7.208,6.779,20.185,20.185,0,0,1-2.168-7.256c.308-.4,3.938-4.318,8.468-3.252Zm-8.482-5.966c1.552-4.572,6.525-4.087,7.613-.477a18.734,18.734,0,0,1,.4,2.409,10.347,10.347,0,0,0-8.46,1.275,9.643,9.643,0,0,1,.39-3.192Zm12.952,13.3a39.39,39.39,0,0,0,6.615,1.35,10.215,10.215,0,0,0-1.635,8.427,42.465,42.465,0,0,1-7.4-.641A9.954,9.954,0,0,1,98.6,122.325ZM92.91,88.02a1.961,1.961,0,0,0-.652.962,1.7,1.7,0,0,0-.983.2,2.6,2.6,0,0,0-1.042,1.186,4.844,4.844,0,0,0-7.913,1.283c-1.875,3.468.48,8.673,4.748,8.673a5.371,5.371,0,0,0,4.912-2.849,6.031,6.031,0,0,0,.1-4.02.2.2,0,0,0-.045-.089,7.11,7.11,0,0,0-1.44-2.618c.315-.626.832-1.327,1.5-1.268-.277,1.685.465,2.237,1.133,2.036s.4-.88.292-1.208a1.887,1.887,0,0,0-.863-1.2,1.632,1.632,0,0,1,.42-.671c.75-.746,1.71-.194,2.647.477a.128.128,0,0,0,.18,0,.149.149,0,0,0,0-.179c-.435-.4-1.83-1.588-3-.716Zm.15,2.3c.165.447.173.529.158.619a.235.235,0,0,1-.27.149c-.442-.089-.442-.925-.368-1.492a1.379,1.379,0,0,1,.48.738Zm-10.6,2.178a4.745,4.745,0,0,1,4.417-3.177,4.961,4.961,0,0,1,3.15,1.492,6.593,6.593,0,0,0-.315,1.1C88.02,90,85.4,89.937,84.03,92.159a4.846,4.846,0,0,0-.548,3.729c.465,1.663,2.137,3.341,4.028,3.147,2.512-.261,4.41-3.923,2.58-6.637a5.8,5.8,0,0,1,.3-1.193,6.342,6.342,0,0,1,1.283,5.735,4.8,4.8,0,0,1-4.425,2.908c-3.682.157-5.992-4.146-4.792-7.353Zm9.292-13.282a4.041,4.041,0,0,0,2.8-.306.872.872,0,0,0,.382-.559c0-.075.323-7.569.105-7.7a.128.128,0,0,0-.127,0,4.912,4.912,0,0,1-2.325.977c-.307,0-.667,0-.8.365-.075.216-.285,5.22-.187,7.018a.246.246,0,0,0,.158.2Zm2.745-.746c-.083.134-.75.694-2.482.4,0-1.842.18-6.093.21-6.51,0-.164,0-.194.21-.194a4.969,4.969,0,0,0,2.25-.746c-.023,1.387-.105,6.682-.18,7.018Zm28.147,31.106a2.26,2.26,0,0,1-.96-.254,7,7,0,0,0-.465-1.126,2.778,2.778,0,0,0-1.643-1.38,4.449,4.449,0,0,0-.06-1.074,5.9,5.9,0,0,0-2.092-.85.255.255,0,0,0-.263.186c-.1.559-.225,1.186-.3,1.8-1.342-.306-2.85.6-3.3.783-.652-.746-.817-1.171-1.14-1.111s-.33.3-.848,1.327c-.135.276-.277.559-.315.619a.089.089,0,0,0,0,.075v1.67a.112.112,0,0,0,.068.1l1.14.447c0,.313.038,1.022.038,1.223l-.158.1c-.547.321-.5.313-.945.932a.126.126,0,0,0,0,.149c.2.186,1.373,1.081,1.7,1.283a.128.128,0,0,0,.143,0l.832-.873,1.9.365a13.323,13.323,0,0,1,1.08,1.492c.045.082,0,.06,1.875.06a.112.112,0,0,0,.112-.1,5.835,5.835,0,0,1,.578-1.141.111.111,0,0,0,0-.1l-.1-.537,1.973-1.417.908.119a.105.105,0,0,0,.12-.075l.5-1.715a.1.1,0,0,0,0-.067c-.33-.91-.292-.91-.382-.917ZM117,107.41a.105.105,0,0,0,.1,0c.075,0,.105-.052.48-1.984a5.765,5.765,0,0,1,1.5.574v1.014a.224.224,0,0,0,.18.231c1.613.328,2,2.409,2.175,2.558a2.635,2.635,0,0,0,.75.283l-.09,1.335-1.013-.3c-.09,0,.09-.142-2.182,1.775a.1.1,0,0,0,0,.1l.09.843H116.97l-.045-.746a.112.112,0,0,0-.1-.1l-2.933-.351c-.1,0-.067,0-.622.746l-.96-.679a2.035,2.035,0,0,1,.368-.209.373.373,0,0,0,.277-.343v-2.461c0-.082.053,0-1.17-.947a10.544,10.544,0,0,1,.8-1.581c.27.328.81,1.037,1.087,1.037s2.25-1.26,3.322-.791Z" transform="translate(-11.338 -3.592)" fill="#7e2eef"/>
      <path id="Path_170134" data-name="Path 170134" d="M116.49,112.732a2.768,2.768,0,0,0,2.115-.292,2.145,2.145,0,0,0,.577-2.723,1.763,1.763,0,0,0-.547-.555,4.1,4.1,0,0,0-3-.345,1.71,1.71,0,0,0-.937.705,2.438,2.438,0,0,0-.075,2.25,3.068,3.068,0,0,0,1.868.96Zm-1.455-1.965c.247-.39.915-.4,1.372-.36,1.845.158,2.213.63,2.25.9a.885.885,0,0,1-.428.795,2.483,2.483,0,0,1-1.77.158,2.34,2.34,0,0,1-1.463-.75A.75.75,0,0,1,115.035,110.768ZM36.135,90.81a2.843,2.843,0,0,0-.84,2.88,3.54,3.54,0,0,0,4.327,2.063,2.64,2.64,0,0,0,1.71-1.155c.278-.517.75-2.955-.96-4.1a3.667,3.667,0,0,0-4.238.315Zm4.7,2.655a3.248,3.248,0,0,1-2.812.75c-.653-.15-2-.833-2.175-1.74-.1-.533.225-1.065.975-1.583,1.26-.863,3.412-.615,4.073.8a1.568,1.568,0,0,1-.06,1.77Z" transform="translate(-10.128 -4.174)" fill="#7e2eef"/>
      <path id="Path_170135" data-name="Path 170135" d="M38.775,91.26c-1.08-.225-1.695.33-1.725.907,0,.69.75,1.035,1.447,1.035C39.99,93.2,40.305,91.582,38.775,91.26Zm.36,1.4c-.443.345-1.658.067-1.68-.42,0-.285.263-.607.81-.607.345,0,.975.15,1.058.495A.63.63,0,0,1,39.135,92.663ZM124.545,99a3.667,3.667,0,0,0-4.245.322,2.887,2.887,0,0,0-.84,2.873,3.532,3.532,0,0,0,4.328,2.062,2.58,2.58,0,0,0,1.71-1.155C125.783,102.57,126.277,100.14,124.545,99Zm.465,3a3.233,3.233,0,0,1-2.812.75c-.652-.15-2.01-.825-2.183-1.74-.105-.533.225-1.065.975-1.583,1.283-.877,3.42-.6,4.072.8a1.567,1.567,0,0,1-.053,1.725Z" transform="translate(-11.338 -4.138)" fill="#7e2eef"/>
      <path id="Path_170136" data-name="Path 170136" d="M122.94,99.75c-1.08-.225-1.695.33-1.725.915s.75,1.035,1.455,1.035C124.17,101.7,124.5,100.073,122.94,99.75Zm.36,1.4c-.442.345-1.658.075-1.672-.413,0-.292.255-.615.8-.615.337,0,.982.143,1.065.5a.637.637,0,0,1-.195.525ZM87.682,68.527a2.017,2.017,0,0,0-1.035,0,.112.112,0,0,0-.082.142l.075.24c.06.188.285-.067.923.052-.24,1.5.9,2.408,1.5,1.74s-.127-1.7-.937-2.055a1.86,1.86,0,0,1,2.317-1,.136.136,0,1,0,.1-.255,2.085,2.085,0,0,0-2.857,1.14Zm.622,1.808a1.553,1.553,0,0,1-.292-1.208C89.295,69.75,88.852,70.958,88.3,70.335ZM77.325,72.75a3.075,3.075,0,1,0,3.12,2.467A3,3,0,0,0,77.325,72.75Zm5.5-7.59a.885.885,0,0,0-.75.645c-.165.54.21,1.252.69,1.29A1,1,0,0,0,83.61,66,.9.9,0,0,0,82.823,65.16ZM31.268,69.63c-.518.12-.878,1.793-.518,3.195.307,1.238,1.2,2.535,1.725,2.408s.667-1.815.375-3.1-1.042-2.6-1.583-2.5Z" transform="translate(-11.338 -4.06)" fill="#7e2eef"/>
      <path id="Path_170137" data-name="Path 170137" d="M86.948,61.425a.945.945,0,0,0-.278-.75c-.278-.2-.69,0-.81,0-11.453,2.01-17.918-1.29-18.5-1.073s-.99,1.035-1.125,7.6V77.813c.4.5,11.048,11.5,20.865.75C87,76.08,87.037,65.04,86.947,61.425Zm-16.268.75a1.417,1.417,0,1,1-1.073,1.5,1.4,1.4,0,0,1,1.072-1.493Zm-.3,9.113v-1.62a3.33,3.33,0,0,1-1.9-.75c-.053.187-.113.367-.165.548a1.275,1.275,0,0,1-1.155,0,30.068,30.068,0,0,1,.105-4.7c.075.135,1.44,2.5,3.75,2.58s4.613-2.077,4.793-5.153a17.25,17.25,0,0,1,3.87,1.118,2.61,2.61,0,0,1-1.2,1.5l-.893-.36a4.23,4.23,0,0,1-.435,1.335l1.027,1.245a2.3,2.3,0,0,1-1.252,1.612l-1.133-.893a3.855,3.855,0,0,1-3.045,1.695v1.335a1.785,1.785,0,0,1-2.37.518Zm12.585,4.065a5.183,5.183,0,0,1-1.125.135,2.408,2.408,0,0,1-.27,1.447l1.4,1.1a3.975,3.975,0,0,1-1.425,1.83c-.135-.09-.847-.517-1.042-.615a3.443,3.443,0,0,1-1.5.863,3.5,3.5,0,0,1-.053.75,3.15,3.15,0,0,1-2.5.27l-.135-1.073a5.55,5.55,0,0,1-1.853-1.1l-.915.81a1.762,1.762,0,0,1-1.312-1.965l.938-.622a2.093,2.093,0,0,1,0-1.177A12.555,12.555,0,0,1,71.5,74.85a1.718,1.718,0,0,1,.75-1.935l1.1.7a3.84,3.84,0,0,1,1.5-1.8c-.218-.5-.443-.99-.668-1.5l1.35-.915L76.9,71.25a4.77,4.77,0,0,1,1.635.06,11.777,11.777,0,0,1,1.1-1.5,11.6,11.6,0,0,1,1.5,1.155,13.02,13.02,0,0,1-.675,1.5,2.25,2.25,0,0,1,.675.705,5.467,5.467,0,0,1,1.155-.3,2.827,2.827,0,0,1,.675,2.49Zm2.063-8.325-.75-.12a.488.488,0,0,1-.33.39l.45.638a.705.705,0,0,1-.75.667,4.29,4.29,0,0,1-.577-.75,1.23,1.23,0,0,1-.93-.173c-.2.262-.39.517-.577.75a.8.8,0,0,1-.862-.592l.667-.7a1.065,1.065,0,0,1-.323-.75,9.158,9.158,0,0,1-1.237-.067,6.412,6.412,0,0,1,0-.93,6.862,6.862,0,0,1,1.418,0,.84.84,0,0,1,.457-.75,10.883,10.883,0,0,1-.42-1.32,2.827,2.827,0,0,1,.847-.285,11.787,11.787,0,0,1,.63,1.05,1.4,1.4,0,0,1,.675.1,5.153,5.153,0,0,1,.563-.705,1.8,1.8,0,0,1,.75.555l-.607.668a1.62,1.62,0,0,1,.33,1.3l.668.225a1.5,1.5,0,0,1-.09.81ZM128.145,78c0-.878.06-2.25-.795-2.88-.75-.57-4.118,1.41-17.58.21-.315,0-.638.622-.75,3.247-.083,1.613.225,6.548.352,8.25,1.275.818,9.323,4.44,19.035,0C128.13,82.89,128.1,80.04,128.145,78Zm-16.89,2.9a.278.278,0,0,1-.4-.39l1.4-1.463c-.4-.352-.75-.75-1.2-1.125a.257.257,0,0,1,.36-.368,14.975,14.975,0,0,0,1.268,1.05c.27-.285,1.058-1.11,1.305-1.335a.33.33,0,0,1,.465.458c-.232.262-1.012,1.028-1.252,1.26a13.5,13.5,0,0,1,1.11.84.307.307,0,0,1-.33.51,7.957,7.957,0,0,1-1.245-.885Zm13.32,2.82a6.982,6.982,0,0,0-.068,1.372.263.263,0,0,1-.247.285.293.293,0,0,1-.3-.255,9.123,9.123,0,0,1,0-1.08s-9.825.382-10.912.4a4.808,4.808,0,0,0,.12,1.418.257.257,0,1,1-.495.135,4.582,4.582,0,0,1-.188-1.868.293.293,0,0,1,.307-.27c.57.06,11.355-.472,11.453-.472a.135.135,0,0,1,.12,0,.3.3,0,0,1,.21.337Zm.982-5.7-1.913,1.425c.263.232,1.035.877,1.237,1.11a.285.285,0,0,1-.353.442,13.644,13.644,0,0,1-1.388-1.147,12.189,12.189,0,0,0-.922.87c-.225.255-.6-.1-.375-.353s.555-.607.862-.93c-.45-.442-.862-.908-1.252-1.342a.27.27,0,0,1,.39-.368c.42.442.862.863,1.32,1.29a21.561,21.561,0,0,1,2.055-1.5c.307-.135.615.278.337.48Z" transform="translate(-11.338 -3.991)" fill="#7e2eef"/>
      <path id="Path_170138" data-name="Path 170138" d="M136.078,59.2H116.729c0-1.32.125-18.187.147-19.335a2.3,2.3,0,0,0,1.925-1.605,2.373,2.373,0,0,0-.64-2.452,2.119,2.119,0,0,0-2.414-.37,2.206,2.206,0,0,0-1.2,2.17,2.407,2.407,0,0,0,1.925,2.25c-.176,4.4-.242,14.767-.235,19.35-6.06,0-11.46,0-12.775-.06l-3.5-4.1c-.1-2.25-1.7-3.705-4.3-3.87a5.733,5.733,0,0,0-3.673,1.11,5.636,5.636,0,0,1-1.917-1.38,2.734,2.734,0,0,0-.441-1.567c-1.065-1.65-3.166-1.89-4.694-2.062-1.836-.2-3.607-.323-5.26-.338a7.4,7.4,0,0,1,.044-2.483c1.469,1.5,3.2.405,2.674-1.132-.169-.48-.632-1.35-1.3-1.5-.823-.2-1.278.75-1.557,1.553a3.638,3.638,0,0,1-.176-2.9,3,3,0,0,1,3.768-1.733,2.723,2.723,0,0,0,.4,1.935.8.8,0,0,0,.842.349.818.818,0,0,0,.627-.671c.176-.8-.61-1.56-1.33-1.912A3.6,3.6,0,0,1,86.008,36a10.2,10.2,0,0,1,4.54-.292.163.163,0,0,0,.156-.142.165.165,0,0,0-.112-.18,8.592,8.592,0,0,0-4.841.195,4.155,4.155,0,0,0-2.512,2.67,3.489,3.489,0,0,0-3.82,1.155,4.02,4.02,0,0,0-.051,4.6,7.439,7.439,0,0,0-.118,2.933,33.563,33.563,0,0,0-8.551,1c-.477-2.115-2.2-3.083-3.232-2.753a4.789,4.789,0,0,0-6.722.75c-.154.2.162.427.316.225a4.349,4.349,0,0,1,5.965-.772,1.41,1.41,0,0,0-.588,1.11c0,.863.837,1.4,1.359.81a1.4,1.4,0,0,0,0-1.695c.837-.083,2.086.75,2.446,2.445-1.881.525-3.974,1.425-4,3.75a5.337,5.337,0,0,0-3.24.083,5.023,5.023,0,0,0-2.373,2.362,8.555,8.555,0,0,0-1.175,3.21,10.24,10.24,0,0,0-.14,1.6c-6.567,0-50.467.1-50.467.1a.2.2,0,0,0,0,.39H59.364a1.959,1.959,0,0,0,1.05,1.6A71.725,71.725,0,0,0,59.379,75.75c.11,3.5,0,5.543,3.247,7.3A3.187,3.187,0,0,0,60.613,84.2c-.933,1.32-.58,4.147-.382,5.752a1.8,1.8,0,0,0-.544,1.5c-3.107.847-5.047,2.04-26.445,12.218,0,0-2.292-3.713-3.115-5.025a.109.109,0,0,0-.147-.037l-4.79,2.64a.114.114,0,0,0,0,.158c1.631,2.6,7.985,11.588,9.748,13.92-2-.54-8.6-2.107-10.571-2.43a2.91,2.91,0,0,1-2.152-.945c-.257-.375-5.774-10.56-6.993-12.9,1.388.33,7.868,1.725,8.852,1.845.073,0-.147.083,4.628-2.415a.113.113,0,0,0,0-.21c-1.983-.217-8.947-1.23-10.372-1.5-.1,0-3.541,1.695-3.754,1.8a.12.12,0,0,0-.059.1c0,.075,6.964,12.893,7.148,13.185a2.554,2.554,0,0,0,1.851,1.388c.779.172,11.651,2.76,12.011,2.88.1,0-.118.165,3.629-2.7a.114.114,0,0,0,0-.15l-.419-.683c3.5-1.6,22.537-10.6,23.661-11.2.558-.3,1.058-.57,1.557-.862,10.857,3.382,19.731,3.1,27.129-.87a22.612,22.612,0,0,0,3-1.927A24.476,24.476,0,0,0,96.814,95.2c0-.082-.184-12-.419-12.63a2.17,2.17,0,0,0-.735-.975,6.49,6.49,0,0,0,1.925-4.822c0-1.237-.286-9.412-.382-11.3,8.815,7.327,8.249,6.653,8.191,6.8-1.469,3.93-1.139,13.29-.97,17.475a6,6,0,0,0,.735,2.948,7.074,7.074,0,0,0,4.885,3,45.781,45.781,0,0,0,13.913-.442c4.525-.93,6.149-2.475,6.354-6.5.051.645.544.93,1.278.217a15.187,15.187,0,0,0,1.337-2,2.793,2.793,0,0,0,2.13-1.5,5.406,5.406,0,0,0,.588-3.293c-.191-1.5-.808-4.207-2.733-4.957a2.988,2.988,0,0,0-2.858.277,9.892,9.892,0,0,0-.433-1.26c-.558-3.99-1.7-8.813-5.4-10.943a9.4,9.4,0,0,0-3.379-1,12.251,12.251,0,0,0-.066-1.71,1.193,1.193,0,0,0-.632-.96,5.957,5.957,0,0,0-3.416-.4V59.648c8.521,0,18.012-.06,19.364-.12.191,0,.191-.33-.015-.33ZM80.6,42.39c.22-.173.463-.142.735.1a1.943,1.943,0,0,1,.735,1.553c-.132.75-1.249,1.012-2.16-.18A3.254,3.254,0,0,1,80.6,42.39Zm3.012-3.465a2.43,2.43,0,0,1,.632.488c.735.75.1,1.357-.235,1.042A1.988,1.988,0,0,1,83.613,38.925ZM67.526,46.882c-.14.263-.4.195-.529,0a.887.887,0,0,1,.353-1.132,1.121,1.121,0,0,1,.176,1.132Zm48.718,12.75v1.65c-.735.127-2.2.4-2.277,1.177a11.289,11.289,0,0,0-.125,2,6.963,6.963,0,0,0-4.408,1.74c-1.308-1.582-3.6-4.29-5.612-6.653,2.138.1,7.045.12,12.422.12Zm-16.528-4.29.837,1.02a5.131,5.131,0,0,0-4.239,1.148c-1.631,1.5-1.8,4.11-1.785,5.25a5.118,5.118,0,0,1-1.183-3.885,4.779,4.779,0,0,1,1.925-3.225,4.646,4.646,0,0,1,4.444-.278Zm-6.038-3c.529-.322,1-.315,1.256,0A.922.922,0,0,1,94.86,53.5a3.286,3.286,0,0,1-1.734,1.058c-.485.12-.852.143-1.08.563-.382.7-1.117.21-.646-.607a5.924,5.924,0,0,1,2.277-2.13Zm-2.667,5.85a.444.444,0,0,1-.468.18A.454.454,0,0,1,90.2,58,1.577,1.577,0,0,1,90.5,56.73a.528.528,0,0,1,.558-.116.546.546,0,0,1,.346.461,1.938,1.938,0,0,1-.389,1.155ZM79.345,47.385a6.444,6.444,0,0,0,.213.75,27.878,27.878,0,0,0-8.815,1.042,4.2,4.2,0,0,0,0-.8,41.1,41.1,0,0,1,8.6-.99Zm-12.04,2.707a3.721,3.721,0,0,1,2.02-1.275c.286-.105.6-.2.977-.3a3.943,3.943,0,0,1,0,.833c-4.408,1.4-1.594,2.768,2.982,3.593,3.379.607,11.247.457,13.957-1.628.735-.57,1.006-1.185.309-1.808-1.286-1.125-5.274-1.327-7.588-1.35a6.242,6.242,0,0,1-.213-.75,44.63,44.63,0,0,1,6.406.532c3.541.63,4.217,3,2.549,5.077-2.086,2.55-6.1,2.94-8.955,3a34.454,34.454,0,0,1-8.558-.675,13.625,13.625,0,0,1-2.667-.75,3.47,3.47,0,0,1-1.712-1.92,3.05,3.05,0,0,1,.492-2.58ZM60.951,90a3.441,3.441,0,0,1,1.961-.33,6.741,6.741,0,0,1,3.533,1.125c1.469,1.028,2.2,2.783,2.277,5.355a5.6,5.6,0,0,1-.257,1.973,1.791,1.791,0,0,1-2.7,1.1A4.709,4.709,0,0,0,67.3,95.191,4.66,4.66,0,0,0,64.925,91.6a6.483,6.483,0,0,0-4.76-.322A1.458,1.458,0,0,1,60.951,90ZM38.487,112.178c-1.095-1.785-4.283-6.952-5.054-8.2l3.673-1.687a13.314,13.314,0,0,1,4.7,8.295C41.815,110.663,42.05,110.5,38.487,112.178Zm3.717-1.74a12.253,12.253,0,0,0-4.679-8.34c2.079-.952,4.158-1.92,6.193-2.872,3.614,2.04,4.268,7.29,4.371,8.46Zm6.281-2.933c-.455-6.12-3.394-8.085-4.239-8.527,1.095-.51,4.745-2.25,6.1-2.9,4.408.705,5.495,7.147,5.612,7.95-1.161.533-5.833,2.715-7.478,3.48Zm14.986-7.178c-.6.308-5.774,2.88-7.133,3.525-.859-6.187-3.776-7.732-5.3-8.115,1.469-.75,5.539-2.722,7.206-3.33C62.92,92.9,63.544,99.037,63.471,100.327Zm.389-.232c.132-6.1-3.284-7.695-4.474-8.062,2.938-.87,4.966-.6,6.3.825a4.311,4.311,0,0,1,.154,5.693A11.5,11.5,0,0,1,63.86,100.095ZM96.072,84.112c.066,1.2.286,10.613.316,10.98a52.6,52.6,0,0,1-4.9,3.75c-7.177,4.14-16.044,4.6-27.085,1.4.353-.232.808-.57,1-.705a2.076,2.076,0,0,0,3-.368c.97-1.223.874-3,.683-4.41-.441-3.345-2.512-5.25-5.987-5.587a4.25,4.25,0,0,0-2.461.45c-.088-.982-.169-1.988-.176-3C72.844,90.7,85.149,89.82,96.072,84.112Zm1.073-8.085c-.1,1.62.051,2.25-.544,3.472-4.268,9-31.911,6.66-35.672,1.6-1.058-1.417-.977-3.045-1.043-5.115a76.238,76.238,0,0,1,.477-11.25c.977-8.227,3.724-11.22,5.928-12.277.1.54.6,2.317,3.291,3,1.014.248,2.005.518,3.012.683a38.263,38.263,0,0,0,11.482,0,9.359,9.359,0,0,0,4.547-2.205,4.678,4.678,0,0,0,1.41-2.437A5.358,5.358,0,0,0,91.6,52.628a7.085,7.085,0,0,0-3.012,4.357,7.367,7.367,0,0,0,.279,3.383,7.858,7.858,0,0,0,1.263,2.738c1.572,2.115,4.459,3.75,6.509,2.122.081,1.365.588,9.585.507,10.8ZM95,63.277c-.073-4.5,1.734-7.132,6.031-6.308.6.75,1.212,1.448,1.822,2.167a4.974,4.974,0,0,0-4.239,1.77,6.712,6.712,0,0,0-1.374,4.118,22.831,22.831,0,0,1-2.233-1.74Zm2.74,1.972a6.023,6.023,0,0,1,1.513-4.335,4.555,4.555,0,0,1,4-1.335l2.02,2.378A4.034,4.034,0,0,0,101.6,63.21a6.7,6.7,0,0,0-1.469,4.095C99.348,66.7,97.923,65.467,97.739,65.25Zm2.865,2.468a5.8,5.8,0,0,1,1.55-4.3,3.758,3.758,0,0,1,3.563-.938c.4.465,1.352,1.583,1.719,2.025a5.256,5.256,0,0,0-4.5,5.13Zm2.777,2.25a9.931,9.931,0,0,1,.323-1.7,5.234,5.234,0,0,1,.882-1.68,5.287,5.287,0,0,1,3.173-1.74l1.359,1.6a14.265,14.265,0,0,0-3.563,5.332c-.676-.532-1.947-1.575-2.174-1.762Zm26.923,18.1a17.519,17.519,0,0,0-.073-2.145l.066-.067a2.875,2.875,0,0,0,.529.36,5.8,5.8,0,0,0-.522,1.905Zm-3.078-.488a.255.255,0,0,1-.257-.105.97.97,0,0,1,.066-.81,10.338,10.338,0,0,1,1.609-1.995c.47-.5,1.05-1.043,1.7-.893a.59.59,0,0,1,.361.286.611.611,0,0,1,.051.464c-.22.975-2.7,3.075-3.5,3.105Zm4.6.442a4.007,4.007,0,0,1-.588.75c-.323.285-.536.4-.588,0a2.478,2.478,0,0,1,.118-.885,5.11,5.11,0,0,1,1.168-2.527.564.564,0,0,1,.735-.075c.286.217.389.967-.845,2.79ZM130.12,78a2.573,2.573,0,0,1,1.124-.57,2.671,2.671,0,0,1,1.315.045c1.792.563,2.2,2.3,2.578,4.192a5.354,5.354,0,0,1-.206,3.1,2.766,2.766,0,0,1-1.836,1.8c.367-.75.1-1.868-.779-1.868-.617,0-1.028.607-1.33,1.177a.819.819,0,0,1-.463-.27c.58-.622,1.021-1.395.411-1.995a1.322,1.322,0,0,0-1.579-.075c-.059-.18-.176-.51-.22-.675.375-.173,1.469-.7,1.469-1.433,0-.548-1.05-.615-1.587-.525a5.993,5.993,0,0,1,.323-2.153.829.829,0,0,0,.779-.7ZM127.3,83.31a7.372,7.372,0,0,1-1.109.315c-.441.09-.088-.232.235-.555,1.021-1.028,1.954-1.808,3.335-1.808.264,0,.536.06.441.308-.213.63-2.138,1.515-2.9,1.793Zm2.387-5.287a.431.431,0,0,1-.268.288.419.419,0,0,1-.385-.055,2.313,2.313,0,0,1-.624-.75c-.338-.5-1.374-2.018-1.117-2.82a.469.469,0,0,1,.272-.315c.353-.135.654.3.867.607.382.615,1.4,2.272,1.256,3.1Zm-8.925-12.945a1.039,1.039,0,0,0,.059-.345,7.755,7.755,0,0,1,5.01,2.55c2.079,2.287,2.7,5.3,3.159,7.792l-.22-.308a1.878,1.878,0,0,0-.837-.75.8.8,0,0,0-.926.368c-.455.75.272,2.16.426,2.438.25.442.522.833.771,1.2a1.823,1.823,0,0,0,.786.75,6.974,6.974,0,0,0-.309,2.25,6.243,6.243,0,0,0-2.387,1.612l-.169.18c-.338.345-.588.6-.544.907a.444.444,0,0,0,.176.308.966.966,0,0,0,.735,0,13.46,13.46,0,0,0,2.314-.952c.059.21.176.548.235.705a15.193,15.193,0,0,0-1.469,1.5c-.551.675-1.4,1.688-.948,2.43.6.982,2.417-.562,3.24-1.357.125,2.85,0,5.475-1.866,6.878-2.285,1.717-7.192,2.085-9.55,2.25s-7.206.278-9.638-.533a5.577,5.577,0,0,1-3.849-4.02c-.162-.982-.1-14.58.463-16.763,1.095-4.275,4.136-9.262,8.448-9.262a.549.549,0,0,0,.081.308,3.719,3.719,0,0,0,1.594.75,6.884,6.884,0,0,0,3.879-.06,2.643,2.643,0,0,0,1.337-.825Zm-.323-.2c-1.036.87-2.623,1.11-4.709.75a3.377,3.377,0,0,1-1.425-.592c0-.158-.037-1.238-.037-1.823,1.2,1.065,4.745,1.5,6.119.127C120.394,63.75,120.409,64.6,120.438,64.875Zm-.58-2.85c.566.345.566.66.073,1.058a4.158,4.158,0,0,1-3.115.548c-1.954-.375-2.351-.817-2.424-.945a.145.145,0,0,1,0-.083c.331-.93,4.217-1.335,5.465-.577Z" transform="translate(-8.662 -4.004)" fill="#7e2eef"/>
      <path id="Path_170139" data-name="Path 170139" d="M94.14,69.188A.96.96,0,0,0,93.2,68.3a1.425,1.425,0,0,0-1.035.5.945.945,0,0,0,.6,1.62,1.365,1.365,0,0,0,1.372-1.238Zm-.75.585c-.293.225-.885.3-1-.12-.21-.75,1.118-1.305,1.32-.5a.645.645,0,0,1-.315.6Z" transform="translate(-10.37 -3.964)" fill="#7e2eef"/>
    </g>
  </g>
</svg>
